<?xml version="1.0" encoding="utf-8" standalone="no"?>
<!DOCTYPE svg PUBLIC "-//W3C//DTD SVG 1.1//EN"
  "http://www.w3.org/Graphics/SVG/1.1/DTD/svg11.dtd">
<!-- Created with matplotlib (http://matplotlib.org/) -->
<svg height="432pt" version="1.1" viewBox="0 0 432 432" width="432pt" xmlns="http://www.w3.org/2000/svg" xmlns:xlink="http://www.w3.org/1999/xlink">
 <defs>
  <style type="text/css">
*{stroke-linecap:butt;stroke-linejoin:round;}
  </style>
 </defs>
 <g id="figure_1">
  <g id="patch_1">
   <path d="M 0 432 
L 432 432 
L 432 0 
L 0 0 
z
" style="fill:#ffffff;"/>
  </g>
  <g id="axes_1">
   <g id="patch_2">
    <path d="M 54 384.48 
L 388.8 384.48 
L 388.8 51.84 
L 54 51.84 
z
" style="fill:#ffffff;"/>
   </g>
   <g id="PathCollection_1">
    <defs>
     <path d="M 0 1.118034 
C 0.296506 1.118034 0.580908 1.000231 0.790569 0.790569 
C 1.000231 0.580908 1.118034 0.296506 1.118034 0 
C 1.118034 -0.296506 1.000231 -0.580908 0.790569 -0.790569 
C 0.580908 -1.000231 0.296506 -1.118034 0 -1.118034 
C -0.296506 -1.118034 -0.580908 -1.000231 -0.790569 -0.790569 
C -1.000231 -0.580908 -1.118034 -0.296506 -1.118034 0 
C -1.118034 0.296506 -1.000231 0.580908 -0.790569 0.790569 
C -0.580908 1.000231 -0.296506 1.118034 0 1.118034 
z
" id="me25c1aecb1" style="stroke:#000000;"/>
    </defs>
    <g clip-path="url(#p8cc27e2cc1)">
     <use style="stroke:#000000;" x="95.783038" xlink:href="#me25c1aecb1" y="283.59912"/>
     <use style="stroke:#000000;" x="94.845599" xlink:href="#me25c1aecb1" y="288.279979"/>
     <use style="stroke:#000000;" x="88.819199" xlink:href="#me25c1aecb1" y="309.11743"/>
     <use style="stroke:#000000;" x="109.777679" xlink:href="#me25c1aecb1" y="262.026722"/>
     <use style="stroke:#000000;" x="108.706321" xlink:href="#me25c1aecb1" y="270.00104"/>
     <use style="stroke:#000000;" x="136.026" xlink:href="#me25c1aecb1" y="217.464872"/>
     <use style="stroke:#000000;" x="81.654481" xlink:href="#me25c1aecb1" y="336.617439"/>
     <use style="stroke:#000000;" x="96.318721" xlink:href="#me25c1aecb1" y="269.395448"/>
     <use style="stroke:#000000;" x="86.341679" xlink:href="#me25c1aecb1" y="311.236268"/>
     <use style="stroke:#000000;" x="90.627119" xlink:href="#me25c1aecb1" y="301.924571"/>
     <use style="stroke:#000000;" x="82.123199" xlink:href="#me25c1aecb1" y="322.887392"/>
     <use style="stroke:#000000;" x="123.437519" xlink:href="#me25c1aecb1" y="252.982324"/>
     <use style="stroke:#000000;" x="162.341282" xlink:href="#me25c1aecb1" y="182.363056"/>
     <use style="stroke:#000000;" x="95.98392" xlink:href="#me25c1aecb1" y="297.414128"/>
     <use style="stroke:#000000;" x="116.138878" xlink:href="#me25c1aecb1" y="300.656437"/>
     <use style="stroke:#000000;" x="109.777679" xlink:href="#me25c1aecb1" y="259.663319"/>
     <use style="stroke:#000000;" x="109.108077" xlink:href="#me25c1aecb1" y="246.817475"/>
     <use style="stroke:#000000;" x="83.127599" xlink:href="#me25c1aecb1" y="327.33029"/>
     <use style="stroke:#000000;" x="102.010321" xlink:href="#me25c1aecb1" y="247.240939"/>
     <use style="stroke:#000000;" x="166.024077" xlink:href="#me25c1aecb1" y="184.783168"/>
     <use style="stroke:#000000;" x="110.045519" xlink:href="#me25c1aecb1" y="286.816888"/>
     <use style="stroke:#000000;" x="83.127599" xlink:href="#me25c1aecb1" y="329.586317"/>
     <use style="stroke:#000000;" x="84.39984" xlink:href="#me25c1aecb1" y="317.346998"/>
     <use style="stroke:#000000;" x="156.314878" xlink:href="#me25c1aecb1" y="168.900313"/>
     <use style="stroke:#000000;" x="99.198" xlink:href="#me25c1aecb1" y="267.486826"/>
     <use style="stroke:#000000;" x="86.676481" xlink:href="#me25c1aecb1" y="306.5334"/>
     <use style="stroke:#000000;" x="94.711679" xlink:href="#me25c1aecb1" y="290.84186"/>
     <use style="stroke:#000000;" x="147.744" xlink:href="#me25c1aecb1" y="166.13607"/>
     <use style="stroke:#000000;" x="94.30992" xlink:href="#me25c1aecb1" y="305.534575"/>
     <use style="stroke:#000000;" x="92.63592" xlink:href="#me25c1aecb1" y="301.767307"/>
     <use style="stroke:#000000;" x="86.609519" xlink:href="#me25c1aecb1" y="327.001113"/>
     <use style="stroke:#000000;" x="107.501038" xlink:href="#me25c1aecb1" y="260.219056"/>
     <use style="stroke:#000000;" x="143.123763" xlink:href="#me25c1aecb1" y="193.819217"/>
     <use style="stroke:#000000;" x="103.751279" xlink:href="#me25c1aecb1" y="267.50789"/>
     <use style="stroke:#000000;" x="96.385679" xlink:href="#me25c1aecb1" y="267.647306"/>
     <use style="stroke:#000000;" x="92.568962" xlink:href="#me25c1aecb1" y="282.456666"/>
     <use style="stroke:#000000;" x="98.729279" xlink:href="#me25c1aecb1" y="275.632777"/>
     <use style="stroke:#000000;" x="91.832401" xlink:href="#me25c1aecb1" y="318.336883"/>
     <use style="stroke:#000000;" x="104.286962" xlink:href="#me25c1aecb1" y="294.198683"/>
     <use style="stroke:#000000;" x="84.065038" xlink:href="#me25c1aecb1" y="304.257146"/>
     <use style="stroke:#000000;" x="87.145199" xlink:href="#me25c1aecb1" y="303.735727"/>
     <use style="stroke:#000000;" x="90.828" xlink:href="#me25c1aecb1" y="322.509653"/>
     <use style="stroke:#000000;" x="101.00592" xlink:href="#me25c1aecb1" y="293.837161"/>
     <use style="stroke:#000000;" x="147.810962" xlink:href="#me25c1aecb1" y="184.834635"/>
     <use style="stroke:#000000;" x="131.539679" xlink:href="#me25c1aecb1" y="196.009717"/>
     <use style="stroke:#000000;" x="93.506401" xlink:href="#me25c1aecb1" y="332.784197"/>
     <use style="stroke:#000000;" x="100.872" xlink:href="#me25c1aecb1" y="286.029839"/>
     <use style="stroke:#000000;" x="87.814801" xlink:href="#me25c1aecb1" y="281.81536"/>
     <use style="stroke:#000000;" x="89.28792" xlink:href="#me25c1aecb1" y="310.403367"/>
     <use style="stroke:#000000;" x="104.35392" xlink:href="#me25c1aecb1" y="300.952965"/>
     <use style="stroke:#000000;" x="126.785519" xlink:href="#me25c1aecb1" y="211.028398"/>
     <use style="stroke:#000000;" x="140.981038" xlink:href="#me25c1aecb1" y="189.54256"/>
     <use style="stroke:#000000;" x="97.189199" xlink:href="#me25c1aecb1" y="319.98596"/>
     <use style="stroke:#000000;" x="102.41208" xlink:href="#me25c1aecb1" y="250.887221"/>
     <use style="stroke:#000000;" x="88.88616" xlink:href="#me25c1aecb1" y="322.567662"/>
     <use style="stroke:#000000;" x="84.600721" xlink:href="#me25c1aecb1" y="338.981801"/>
     <use style="stroke:#000000;" x="139.976641" xlink:href="#me25c1aecb1" y="190.182997"/>
     <use style="stroke:#000000;" x="127.38816" xlink:href="#me25c1aecb1" y="220.29954"/>
     <use style="stroke:#000000;" x="91.564561" xlink:href="#me25c1aecb1" y="324.212786"/>
     <use style="stroke:#000000;" x="134.418962" xlink:href="#me25c1aecb1" y="211.105751"/>
     <use style="stroke:#000000;" x="138.905282" xlink:href="#me25c1aecb1" y="217.473057"/>
     <use style="stroke:#000000;" x="103.684321" xlink:href="#me25c1aecb1" y="270.526081"/>
     <use style="stroke:#000000;" x="114.866641" xlink:href="#me25c1aecb1" y="242.24776"/>
     <use style="stroke:#000000;" x="88.417439" xlink:href="#me25c1aecb1" y="313.286876"/>
     <use style="stroke:#000000;" x="132.678" xlink:href="#me25c1aecb1" y="227.284645"/>
     <use style="stroke:#000000;" x="81.520561" xlink:href="#me25c1aecb1" y="333.781925"/>
     <use style="stroke:#000000;" x="125.580237" xlink:href="#me25c1aecb1" y="231.528665"/>
     <use style="stroke:#000000;" x="124.57584" xlink:href="#me25c1aecb1" y="236.084713"/>
     <use style="stroke:#000000;" x="85.93992" xlink:href="#me25c1aecb1" y="289.782844"/>
     <use style="stroke:#000000;" x="127.522077" xlink:href="#me25c1aecb1" y="215.263853"/>
     <use style="stroke:#000000;" x="99.59976" xlink:href="#me25c1aecb1" y="284.066825"/>
     <use style="stroke:#000000;" x="93.171599" xlink:href="#me25c1aecb1" y="287.171576"/>
     <use style="stroke:#000000;" x="94.912561" xlink:href="#me25c1aecb1" y="310.021746"/>
     <use style="stroke:#000000;" x="132.142321" xlink:href="#me25c1aecb1" y="230.899319"/>
     <use style="stroke:#000000;" x="98.662321" xlink:href="#me25c1aecb1" y="273.883608"/>
     <use style="stroke:#000000;" x="164.751846" xlink:href="#me25c1aecb1" y="169.606442"/>
     <use style="stroke:#000000;" x="121.830481" xlink:href="#me25c1aecb1" y="216.409143"/>
     <use style="stroke:#000000;" x="107.43408" xlink:href="#me25c1aecb1" y="280.768874"/>
     <use style="stroke:#000000;" x="114.330962" xlink:href="#me25c1aecb1" y="240.057958"/>
     <use style="stroke:#000000;" x="80.850962" xlink:href="#me25c1aecb1" y="333.334747"/>
     <use style="stroke:#000000;" x="131.204878" xlink:href="#me25c1aecb1" y="222.345358"/>
     <use style="stroke:#000000;" x="183.902397" xlink:href="#me25c1aecb1" y="128.571393"/>
     <use style="stroke:#000000;" x="106.764481" xlink:href="#me25c1aecb1" y="288.796817"/>
     <use style="stroke:#000000;" x="95.381279" xlink:href="#me25c1aecb1" y="263.733814"/>
     <use style="stroke:#000000;" x="120.089519" xlink:href="#me25c1aecb1" y="248.378603"/>
     <use style="stroke:#000000;" x="109.844641" xlink:href="#me25c1aecb1" y="247.602695"/>
     <use style="stroke:#000000;" x="118.549442" xlink:href="#me25c1aecb1" y="246.838056"/>
     <use style="stroke:#000000;" x="81.453599" xlink:href="#me25c1aecb1" y="315.289074"/>
     <use style="stroke:#000000;" x="90.359279" xlink:href="#me25c1aecb1" y="325.080766"/>
     <use style="stroke:#000000;" x="98.595359" xlink:href="#me25c1aecb1" y="291.039584"/>
     <use style="stroke:#000000;" x="141.851519" xlink:href="#me25c1aecb1" y="190.887692"/>
     <use style="stroke:#000000;" x="145.065603" xlink:href="#me25c1aecb1" y="167.949587"/>
     <use style="stroke:#000000;" x="112.389122" xlink:href="#me25c1aecb1" y="289.503606"/>
     <use style="stroke:#000000;" x="138.369603" xlink:href="#me25c1aecb1" y="214.497336"/>
     <use style="stroke:#000000;" x="139.240077" xlink:href="#me25c1aecb1" y="223.849994"/>
     <use style="stroke:#000000;" x="97.724881" xlink:href="#me25c1aecb1" y="284.119676"/>
     <use style="stroke:#000000;" x="191.401923" xlink:href="#me25c1aecb1" y="113.525036"/>
     <use style="stroke:#000000;" x="107.30016" xlink:href="#me25c1aecb1" y="249.462845"/>
     <use style="stroke:#000000;" x="82.85976" xlink:href="#me25c1aecb1" y="343.977898"/>
     <use style="stroke:#000000;" x="81.654481" xlink:href="#me25c1aecb1" y="332.314081"/>
     <use style="stroke:#000000;" x="143.458558" xlink:href="#me25c1aecb1" y="201.347737"/>
     <use style="stroke:#000000;" x="103.95216" xlink:href="#me25c1aecb1" y="260.982832"/>
     <use style="stroke:#000000;" x="102.345119" xlink:href="#me25c1aecb1" y="294.882415"/>
     <use style="stroke:#000000;" x="95.515199" xlink:href="#me25c1aecb1" y="288.173669"/>
     <use style="stroke:#000000;" x="97.524" xlink:href="#me25c1aecb1" y="293.660007"/>
     <use style="stroke:#000000;" x="136.092962" xlink:href="#me25c1aecb1" y="239.355852"/>
     <use style="stroke:#000000;" x="149.418" xlink:href="#me25c1aecb1" y="176.236021"/>
     <use style="stroke:#000000;" x="90.56016" xlink:href="#me25c1aecb1" y="316.435722"/>
     <use style="stroke:#000000;" x="121.428718" xlink:href="#me25c1aecb1" y="237.516703"/>
     <use style="stroke:#000000;" x="83.529359" xlink:href="#me25c1aecb1" y="340.872899"/>
     <use style="stroke:#000000;" x="120.558237" xlink:href="#me25c1aecb1" y="243.186229"/>
     <use style="stroke:#000000;" x="111.317763" xlink:href="#me25c1aecb1" y="249.111798"/>
     <use style="stroke:#000000;" x="90.828" xlink:href="#me25c1aecb1" y="295.065349"/>
     <use style="stroke:#000000;" x="98.729279" xlink:href="#me25c1aecb1" y="267.882589"/>
     <use style="stroke:#000000;" x="103.416481" xlink:href="#me25c1aecb1" y="249.92293"/>
     <use style="stroke:#000000;" x="95.381279" xlink:href="#me25c1aecb1" y="315.020298"/>
     <use style="stroke:#000000;" x="92.63592" xlink:href="#me25c1aecb1" y="314.457144"/>
     <use style="stroke:#000000;" x="84.734641" xlink:href="#me25c1aecb1" y="314.991531"/>
     <use style="stroke:#000000;" x="148.614481" xlink:href="#me25c1aecb1" y="260.930134"/>
     <use style="stroke:#000000;" x="170.711282" xlink:href="#me25c1aecb1" y="143.222963"/>
     <use style="stroke:#000000;" x="90.761038" xlink:href="#me25c1aecb1" y="323.123094"/>
     <use style="stroke:#000000;" x="90.42624" xlink:href="#me25c1aecb1" y="302.35299"/>
     <use style="stroke:#000000;" x="90.627119" xlink:href="#me25c1aecb1" y="313.589177"/>
     <use style="stroke:#000000;" x="81.118801" xlink:href="#me25c1aecb1" y="329.090232"/>
     <use style="stroke:#000000;" x="166.224962" xlink:href="#me25c1aecb1" y="171.568778"/>
     <use style="stroke:#000000;" x="193.343756" xlink:href="#me25c1aecb1" y="115.241277"/>
     <use style="stroke:#000000;" x="105.425279" xlink:href="#me25c1aecb1" y="266.036297"/>
     <use style="stroke:#000000;" x="148.212718" xlink:href="#me25c1aecb1" y="200.719393"/>
     <use style="stroke:#000000;" x="101.742481" xlink:href="#me25c1aecb1" y="280.730026"/>
     <use style="stroke:#000000;" x="96.720481" xlink:href="#me25c1aecb1" y="302.532955"/>
     <use style="stroke:#000000;" x="106.29576" xlink:href="#me25c1aecb1" y="277.531388"/>
     <use style="stroke:#000000;" x="141.048" xlink:href="#me25c1aecb1" y="201.888577"/>
     <use style="stroke:#000000;" x="84.39984" xlink:href="#me25c1aecb1" y="279.968617"/>
     <use style="stroke:#000000;" x="81.05184" xlink:href="#me25c1aecb1" y="341.624512"/>
     <use style="stroke:#000000;" x="83.86416" xlink:href="#me25c1aecb1" y="318.701393"/>
     <use style="stroke:#000000;" x="88.015679" xlink:href="#me25c1aecb1" y="318.566031"/>
     <use style="stroke:#000000;" x="84.26592" xlink:href="#me25c1aecb1" y="334.897928"/>
     <use style="stroke:#000000;" x="159.997679" xlink:href="#me25c1aecb1" y="138.823944"/>
     <use style="stroke:#000000;" x="89.354881" xlink:href="#me25c1aecb1" y="312.695337"/>
     <use style="stroke:#000000;" x="83.663279" xlink:href="#me25c1aecb1" y="333.836257"/>
     <use style="stroke:#000000;" x="219.926885" xlink:href="#me25c1aecb1" y="75.468373"/>
     <use style="stroke:#000000;" x="132.678" xlink:href="#me25c1aecb1" y="194.888041"/>
     <use style="stroke:#000000;" x="113.259603" xlink:href="#me25c1aecb1" y="261.000178"/>
     <use style="stroke:#000000;" x="86.609519" xlink:href="#me25c1aecb1" y="302.138613"/>
     <use style="stroke:#000000;" x="92.301119" xlink:href="#me25c1aecb1" y="309.218328"/>
     <use style="stroke:#000000;" x="113.728321" xlink:href="#me25c1aecb1" y="229.617835"/>
     <use style="stroke:#000000;" x="111.116878" xlink:href="#me25c1aecb1" y="245.349206"/>
     <use style="stroke:#000000;" x="179.750885" xlink:href="#me25c1aecb1" y="96.272001"/>
     <use style="stroke:#000000;" x="81.721439" xlink:href="#me25c1aecb1" y="339.502328"/>
     <use style="stroke:#000000;" x="113.594397" xlink:href="#me25c1aecb1" y="253.59317"/>
     <use style="stroke:#000000;" x="108.371519" xlink:href="#me25c1aecb1" y="245.602077"/>
     <use style="stroke:#000000;" x="91.162801" xlink:href="#me25c1aecb1" y="327.308966"/>
     <use style="stroke:#000000;" x="143.123763" xlink:href="#me25c1aecb1" y="196.153993"/>
     <use style="stroke:#000000;" x="179.081282" xlink:href="#me25c1aecb1" y="157.611054"/>
     <use style="stroke:#000000;" x="106.362721" xlink:href="#me25c1aecb1" y="263.593167"/>
     <use style="stroke:#000000;" x="117.87984" xlink:href="#me25c1aecb1" y="253.919879"/>
     <use style="stroke:#000000;" x="96.452641" xlink:href="#me25c1aecb1" y="281.542123"/>
     <use style="stroke:#000000;" x="87.07824" xlink:href="#me25c1aecb1" y="332.579502"/>
     <use style="stroke:#000000;" x="94.644721" xlink:href="#me25c1aecb1" y="300.006965"/>
     <use style="stroke:#000000;" x="130.267442" xlink:href="#me25c1aecb1" y="223.174039"/>
     <use style="stroke:#000000;" x="207.003603" xlink:href="#me25c1aecb1" y="113.717024"/>
     <use style="stroke:#000000;" x="107.43408" xlink:href="#me25c1aecb1" y="267.27154"/>
     <use style="stroke:#000000;" x="148.145763" xlink:href="#me25c1aecb1" y="221.197416"/>
     <use style="stroke:#000000;" x="124.843679" xlink:href="#me25c1aecb1" y="213.936651"/>
     <use style="stroke:#000000;" x="111.786481" xlink:href="#me25c1aecb1" y="256.407636"/>
     <use style="stroke:#000000;" x="111.518641" xlink:href="#me25c1aecb1" y="270.306114"/>
     <use style="stroke:#000000;" x="87.145199" xlink:href="#me25c1aecb1" y="329.739089"/>
     <use style="stroke:#000000;" x="81.453599" xlink:href="#me25c1aecb1" y="343.852471"/>
     <use style="stroke:#000000;" x="98.997119" xlink:href="#me25c1aecb1" y="279.397145"/>
     <use style="stroke:#000000;" x="84.466801" xlink:href="#me25c1aecb1" y="323.276785"/>
     <use style="stroke:#000000;" x="96.586561" xlink:href="#me25c1aecb1" y="302.535569"/>
     <use style="stroke:#000000;" x="122.700962" xlink:href="#me25c1aecb1" y="249.633045"/>
     <use style="stroke:#000000;" x="89.488801" xlink:href="#me25c1aecb1" y="323.072902"/>
     <use style="stroke:#000000;" x="114.063122" xlink:href="#me25c1aecb1" y="289.993891"/>
     <use style="stroke:#000000;" x="115.603199" xlink:href="#me25c1aecb1" y="235.835167"/>
     <use style="stroke:#000000;" x="89.02008" xlink:href="#me25c1aecb1" y="327.14183"/>
     <use style="stroke:#000000;" x="116.272801" xlink:href="#me25c1aecb1" y="276.853911"/>
     <use style="stroke:#000000;" x="165.823205" xlink:href="#me25c1aecb1" y="158.436436"/>
     <use style="stroke:#000000;" x="121.22784" xlink:href="#me25c1aecb1" y="263.419997"/>
     <use style="stroke:#000000;" x="90.024481" xlink:href="#me25c1aecb1" y="323.306783"/>
     <use style="stroke:#000000;" x="87.34608" xlink:href="#me25c1aecb1" y="312.740796"/>
     <use style="stroke:#000000;" x="81.18576" xlink:href="#me25c1aecb1" y="332.682995"/>
     <use style="stroke:#000000;" x="93.975119" xlink:href="#me25c1aecb1" y="312.077378"/>
     <use style="stroke:#000000;" x="98.461439" xlink:href="#me25c1aecb1" y="304.529266"/>
     <use style="stroke:#000000;" x="120.089519" xlink:href="#me25c1aecb1" y="223.465904"/>
     <use style="stroke:#000000;" x="108.505442" xlink:href="#me25c1aecb1" y="271.584133"/>
     <use style="stroke:#000000;" x="105.76008" xlink:href="#me25c1aecb1" y="258.339987"/>
     <use style="stroke:#000000;" x="99.06408" xlink:href="#me25c1aecb1" y="267.352206"/>
     <use style="stroke:#000000;" x="81.05184" xlink:href="#me25c1aecb1" y="342.539969"/>
     <use style="stroke:#000000;" x="89.154" xlink:href="#me25c1aecb1" y="310.799721"/>
     <use style="stroke:#000000;" x="116.942397" xlink:href="#me25c1aecb1" y="228.070234"/>
     <use style="stroke:#000000;" x="133.347603" xlink:href="#me25c1aecb1" y="214.057794"/>
     <use style="stroke:#000000;" x="118.951199" xlink:href="#me25c1aecb1" y="238.011227"/>
     <use style="stroke:#000000;" x="99.06408" xlink:href="#me25c1aecb1" y="301.602221"/>
     <use style="stroke:#000000;" x="94.109038" xlink:href="#me25c1aecb1" y="295.100505"/>
     <use style="stroke:#000000;" x="81.855359" xlink:href="#me25c1aecb1" y="336.731538"/>
     <use style="stroke:#000000;" x="83.194561" xlink:href="#me25c1aecb1" y="219.116792"/>
     <use style="stroke:#000000;" x="83.060641" xlink:href="#me25c1aecb1" y="316.617089"/>
     <use style="stroke:#000000;" x="106.697519" xlink:href="#me25c1aecb1" y="316.832736"/>
     <use style="stroke:#000000;" x="196.423923" xlink:href="#me25c1aecb1" y="140.405654"/>
     <use style="stroke:#000000;" x="111.920397" xlink:href="#me25c1aecb1" y="243.879948"/>
     <use style="stroke:#000000;" x="93.640321" xlink:href="#me25c1aecb1" y="295.578596"/>
     <use style="stroke:#000000;" x="117.612" xlink:href="#me25c1aecb1" y="273.173939"/>
     <use style="stroke:#000000;" x="168.367679" xlink:href="#me25c1aecb1" y="158.110729"/>
     <use style="stroke:#000000;" x="141.382801" xlink:href="#me25c1aecb1" y="180.768251"/>
     <use style="stroke:#000000;" x="103.483439" xlink:href="#me25c1aecb1" y="283.023017"/>
     <use style="stroke:#000000;" x="159.72984" xlink:href="#me25c1aecb1" y="142.985624"/>
     <use style="stroke:#000000;" x="82.85976" xlink:href="#me25c1aecb1" y="324.483593"/>
     <use style="stroke:#000000;" x="81.252721" xlink:href="#me25c1aecb1" y="328.83655"/>
     <use style="stroke:#000000;" x="100.269359" xlink:href="#me25c1aecb1" y="261.061835"/>
     <use style="stroke:#000000;" x="194.080321" xlink:href="#me25c1aecb1" y="77.419948"/>
     <use style="stroke:#000000;" x="89.220962" xlink:href="#me25c1aecb1" y="322.254841"/>
     <use style="stroke:#000000;" x="95.314321" xlink:href="#me25c1aecb1" y="322.994133"/>
     <use style="stroke:#000000;" x="83.663279" xlink:href="#me25c1aecb1" y="311.281251"/>
     <use style="stroke:#000000;" x="167.296321" xlink:href="#me25c1aecb1" y="153.542259"/>
     <use style="stroke:#000000;" x="186.915603" xlink:href="#me25c1aecb1" y="98.912473"/>
     <use style="stroke:#000000;" x="86.676481" xlink:href="#me25c1aecb1" y="291.242433"/>
     <use style="stroke:#000000;" x="101.876401" xlink:href="#me25c1aecb1" y="289.249942"/>
     <use style="stroke:#000000;" x="99.59976" xlink:href="#me25c1aecb1" y="297.696685"/>
     <use style="stroke:#000000;" x="103.081679" xlink:href="#me25c1aecb1" y="317.69984"/>
     <use style="stroke:#000000;" x="100.135439" xlink:href="#me25c1aecb1" y="287.664336"/>
     <use style="stroke:#000000;" x="85.53816" xlink:href="#me25c1aecb1" y="307.679724"/>
     <use style="stroke:#000000;" x="185.375526" xlink:href="#me25c1aecb1" y="141.023339"/>
     <use style="stroke:#000000;" x="84.53376" xlink:href="#me25c1aecb1" y="317.624885"/>
     <use style="stroke:#000000;" x="172.050474" xlink:href="#me25c1aecb1" y="152.739996"/>
     <use style="stroke:#000000;" x="187.786077" xlink:href="#me25c1aecb1" y="102.77385"/>
     <use style="stroke:#000000;" x="147.141359" xlink:href="#me25c1aecb1" y="174.557353"/>
     <use style="stroke:#000000;" x="183.701526" xlink:href="#me25c1aecb1" y="134.372239"/>
     <use style="stroke:#000000;" x="120.96" xlink:href="#me25c1aecb1" y="280.229723"/>
     <use style="stroke:#000000;" x="82.257119" xlink:href="#me25c1aecb1" y="340.810589"/>
     <use style="stroke:#000000;" x="100.938962" xlink:href="#me25c1aecb1" y="319.311274"/>
     <use style="stroke:#000000;" x="91.631519" xlink:href="#me25c1aecb1" y="298.035887"/>
     <use style="stroke:#000000;" x="93.037679" xlink:href="#me25c1aecb1" y="301.982256"/>
     <use style="stroke:#000000;" x="91.832401" xlink:href="#me25c1aecb1" y="315.802378"/>
     <use style="stroke:#000000;" x="80.784" xlink:href="#me25c1aecb1" y="333.873883"/>
     <use style="stroke:#000000;" x="83.596321" xlink:href="#me25c1aecb1" y="328.79373"/>
     <use style="stroke:#000000;" x="127.321199" xlink:href="#me25c1aecb1" y="208.265158"/>
     <use style="stroke:#000000;" x="106.29576" xlink:href="#me25c1aecb1" y="252.202737"/>
     <use style="stroke:#000000;" x="93.037679" xlink:href="#me25c1aecb1" y="307.198891"/>
     <use style="stroke:#000000;" x="173.992321" xlink:href="#me25c1aecb1" y="145.273336"/>
     <use style="stroke:#000000;" x="167.765038" xlink:href="#me25c1aecb1" y="148.704929"/>
     <use style="stroke:#000000;" x="89.087038" xlink:href="#me25c1aecb1" y="337.814971"/>
     <use style="stroke:#000000;" x="141.31584" xlink:href="#me25c1aecb1" y="213.338278"/>
     <use style="stroke:#000000;" x="121.026962" xlink:href="#me25c1aecb1" y="244.982793"/>
     <use style="stroke:#000000;" x="89.756641" xlink:href="#me25c1aecb1" y="341.069861"/>
     <use style="stroke:#000000;" x="83.797199" xlink:href="#me25c1aecb1" y="342.355731"/>
     <use style="stroke:#000000;" x="98.863199" xlink:href="#me25c1aecb1" y="287.110624"/>
     <use style="stroke:#000000;" x="97.524" xlink:href="#me25c1aecb1" y="302.177175"/>
     <use style="stroke:#000000;" x="133.682397" xlink:href="#me25c1aecb1" y="227.536932"/>
     <use style="stroke:#000000;" x="139.173122" xlink:href="#me25c1aecb1" y="188.103096"/>
     <use style="stroke:#000000;" x="81.922321" xlink:href="#me25c1aecb1" y="337.646493"/>
     <use style="stroke:#000000;" x="106.429679" xlink:href="#me25c1aecb1" y="267.163086"/>
     <use style="stroke:#000000;" x="130.066558" xlink:href="#me25c1aecb1" y="200.770695"/>
     <use style="stroke:#000000;" x="191.736718" xlink:href="#me25c1aecb1" y="93.424187"/>
     <use style="stroke:#000000;" x="141.516718" xlink:href="#me25c1aecb1" y="218.110956"/>
     <use style="stroke:#000000;" x="197.227436" xlink:href="#me25c1aecb1" y="154.003943"/>
     <use style="stroke:#000000;" x="107.032321" xlink:href="#me25c1aecb1" y="303.121373"/>
     <use style="stroke:#000000;" x="101.742481" xlink:href="#me25c1aecb1" y="293.393311"/>
     <use style="stroke:#000000;" x="175.130641" xlink:href="#me25c1aecb1" y="152.440252"/>
     <use style="stroke:#000000;" x="125.647199" xlink:href="#me25c1aecb1" y="226.487636"/>
     <use style="stroke:#000000;" x="102.14424" xlink:href="#me25c1aecb1" y="312.542413"/>
     <use style="stroke:#000000;" x="183.634564" xlink:href="#me25c1aecb1" y="137.174321"/>
     <use style="stroke:#000000;" x="99.733679" xlink:href="#me25c1aecb1" y="266.885002"/>
     <use style="stroke:#000000;" x="136.695603" xlink:href="#me25c1aecb1" y="214.645457"/>
     <use style="stroke:#000000;" x="105.090481" xlink:href="#me25c1aecb1" y="314.599111"/>
     <use style="stroke:#000000;" x="96.050881" xlink:href="#me25c1aecb1" y="295.902698"/>
     <use style="stroke:#000000;" x="108.237603" xlink:href="#me25c1aecb1" y="273.126811"/>
     <use style="stroke:#000000;" x="94.44384" xlink:href="#me25c1aecb1" y="297.278233"/>
     <use style="stroke:#000000;" x="94.510801" xlink:href="#me25c1aecb1" y="315.24201"/>
     <use style="stroke:#000000;" x="126.986397" xlink:href="#me25c1aecb1" y="216.565994"/>
     <use style="stroke:#000000;" x="104.286962" xlink:href="#me25c1aecb1" y="277.258151"/>
     <use style="stroke:#000000;" x="178.009923" xlink:href="#me25c1aecb1" y="142.815385"/>
     <use style="stroke:#000000;" x="91.028881" xlink:href="#me25c1aecb1" y="322.453624"/>
     <use style="stroke:#000000;" x="81.18576" xlink:href="#me25c1aecb1" y="232.789719"/>
     <use style="stroke:#000000;" x="97.92576" xlink:href="#me25c1aecb1" y="301.488335"/>
     <use style="stroke:#000000;" x="102.612962" xlink:href="#me25c1aecb1" y="286.138738"/>
     <use style="stroke:#000000;" x="172.519205" xlink:href="#me25c1aecb1" y="151.045708"/>
     <use style="stroke:#000000;" x="169.840795" xlink:href="#me25c1aecb1" y="131.178848"/>
     <use style="stroke:#000000;" x="83.261519" xlink:href="#me25c1aecb1" y="326.81382"/>
     <use style="stroke:#000000;" x="90.158401" xlink:href="#me25c1aecb1" y="323.948165"/>
     <use style="stroke:#000000;" x="131.472718" xlink:href="#me25c1aecb1" y="207.972113"/>
     <use style="stroke:#000000;" x="126.651603" xlink:href="#me25c1aecb1" y="238.916894"/>
     <use style="stroke:#000000;" x="98.729279" xlink:href="#me25c1aecb1" y="312.194455"/>
     <use style="stroke:#000000;" x="91.363679" xlink:href="#me25c1aecb1" y="317.338972"/>
     <use style="stroke:#000000;" x="91.899359" xlink:href="#me25c1aecb1" y="313.091506"/>
     <use style="stroke:#000000;" x="155.980077" xlink:href="#me25c1aecb1" y="170.007244"/>
     <use style="stroke:#000000;" x="155.578321" xlink:href="#me25c1aecb1" y="223.561822"/>
     <use style="stroke:#000000;" x="85.872962" xlink:href="#me25c1aecb1" y="316.913115"/>
     <use style="stroke:#000000;" x="94.242962" xlink:href="#me25c1aecb1" y="315.876369"/>
     <use style="stroke:#000000;" x="222.471359" xlink:href="#me25c1aecb1" y="84.777329"/>
     <use style="stroke:#000000;" x="213.364795" xlink:href="#me25c1aecb1" y="78.506195"/>
     <use style="stroke:#000000;" x="124.843679" xlink:href="#me25c1aecb1" y="227.160951"/>
     <use style="stroke:#000000;" x="82.257119" xlink:href="#me25c1aecb1" y="340.568983"/>
     <use style="stroke:#000000;" x="180.956154" xlink:href="#me25c1aecb1" y="156.471436"/>
     <use style="stroke:#000000;" x="139.440962" xlink:href="#me25c1aecb1" y="184.137541"/>
     <use style="stroke:#000000;" x="86.676481" xlink:href="#me25c1aecb1" y="320.906067"/>
     <use style="stroke:#000000;" x="148.413603" xlink:href="#me25c1aecb1" y="171.265099"/>
     <use style="stroke:#000000;" x="116.607603" xlink:href="#me25c1aecb1" y="242.153873"/>
     <use style="stroke:#000000;" x="97.858801" xlink:href="#me25c1aecb1" y="311.911835"/>
     <use style="stroke:#000000;" x="87.814801" xlink:href="#me25c1aecb1" y="300.668339"/>
     <use style="stroke:#000000;" x="171.18" xlink:href="#me25c1aecb1" y="159.924677"/>
     <use style="stroke:#000000;" x="141.181923" xlink:href="#me25c1aecb1" y="206.621004"/>
     <use style="stroke:#000000;" x="88.685279" xlink:href="#me25c1aecb1" y="313.231906"/>
     <use style="stroke:#000000;" x="90.359279" xlink:href="#me25c1aecb1" y="316.475395"/>
     <use style="stroke:#000000;" x="137.7" xlink:href="#me25c1aecb1" y="207.682406"/>
     <use style="stroke:#000000;" x="155.243519" xlink:href="#me25c1aecb1" y="185.560978"/>
     <use style="stroke:#000000;" x="112.85784" xlink:href="#me25c1aecb1" y="256.064812"/>
     <use style="stroke:#000000;" x="132.142321" xlink:href="#me25c1aecb1" y="252.960447"/>
     <use style="stroke:#000000;" x="108.036718" xlink:href="#me25c1aecb1" y="270.746556"/>
     <use style="stroke:#000000;" x="164.149205" xlink:href="#me25c1aecb1" y="159.797582"/>
     <use style="stroke:#000000;" x="86.140801" xlink:href="#me25c1aecb1" y="339.872551"/>
     <use style="stroke:#000000;" x="81.453599" xlink:href="#me25c1aecb1" y="188.71615"/>
     <use style="stroke:#000000;" x="165.622321" xlink:href="#me25c1aecb1" y="152.234864"/>
     <use style="stroke:#000000;" x="89.154" xlink:href="#me25c1aecb1" y="304.217479"/>
     <use style="stroke:#000000;" x="125.915038" xlink:href="#me25c1aecb1" y="192.145954"/>
     <use style="stroke:#000000;" x="127.254237" xlink:href="#me25c1aecb1" y="261.188752"/>
     <use style="stroke:#000000;" x="155.578321" xlink:href="#me25c1aecb1" y="179.131597"/>
     <use style="stroke:#000000;" x="88.88616" xlink:href="#me25c1aecb1" y="332.066423"/>
     <use style="stroke:#000000;" x="84.332881" xlink:href="#me25c1aecb1" y="338.164885"/>
     <use style="stroke:#000000;" x="88.149599" xlink:href="#me25c1aecb1" y="342.137946"/>
     <use style="stroke:#000000;" x="90.56016" xlink:href="#me25c1aecb1" y="318.772465"/>
     <use style="stroke:#000000;" x="89.220962" xlink:href="#me25c1aecb1" y="332.103085"/>
     <use style="stroke:#000000;" x="88.551359" xlink:href="#me25c1aecb1" y="326.809385"/>
     <use style="stroke:#000000;" x="179.884795" xlink:href="#me25c1aecb1" y="118.210705"/>
     <use style="stroke:#000000;" x="157.854962" xlink:href="#me25c1aecb1" y="214.842038"/>
     <use style="stroke:#000000;" x="90.69408" xlink:href="#me25c1aecb1" y="312.893663"/>
     <use style="stroke:#000000;" x="94.30992" xlink:href="#me25c1aecb1" y="307.674895"/>
     <use style="stroke:#000000;" x="129.129122" xlink:href="#me25c1aecb1" y="265.959172"/>
     <use style="stroke:#000000;" x="128.928237" xlink:href="#me25c1aecb1" y="220.282727"/>
     <use style="stroke:#000000;" x="86.475599" xlink:href="#me25c1aecb1" y="338.693829"/>
     <use style="stroke:#000000;" x="85.471199" xlink:href="#me25c1aecb1" y="277.5884"/>
     <use style="stroke:#000000;" x="93.640321" xlink:href="#me25c1aecb1" y="316.842874"/>
     <use style="stroke:#000000;" x="109.576801" xlink:href="#me25c1aecb1" y="251.080668"/>
     <use style="stroke:#000000;" x="89.087038" xlink:href="#me25c1aecb1" y="344.531239"/>
     <use style="stroke:#000000;" x="169.907756" xlink:href="#me25c1aecb1" y="145.386803"/>
     <use style="stroke:#000000;" x="138.436558" xlink:href="#me25c1aecb1" y="217.728529"/>
     <use style="stroke:#000000;" x="126.048962" xlink:href="#me25c1aecb1" y="230.883127"/>
     <use style="stroke:#000000;" x="90.225359" xlink:href="#me25c1aecb1" y="330.861272"/>
     <use style="stroke:#000000;" x="102.612962" xlink:href="#me25c1aecb1" y="283.61613"/>
     <use style="stroke:#000000;" x="155.310481" xlink:href="#me25c1aecb1" y="186.421344"/>
     <use style="stroke:#000000;" x="178.679526" xlink:href="#me25c1aecb1" y="160.802415"/>
     <use style="stroke:#000000;" x="90.69408" xlink:href="#me25c1aecb1" y="294.719797"/>
     <use style="stroke:#000000;" x="106.228801" xlink:href="#me25c1aecb1" y="300.356749"/>
     <use style="stroke:#000000;" x="88.819199" xlink:href="#me25c1aecb1" y="319.127636"/>
     <use style="stroke:#000000;" x="89.28792" xlink:href="#me25c1aecb1" y="321.24872"/>
     <use style="stroke:#000000;" x="94.57776" xlink:href="#me25c1aecb1" y="300.004814"/>
     <use style="stroke:#000000;" x="138.034801" xlink:href="#me25c1aecb1" y="185.820853"/>
     <use style="stroke:#000000;" x="148.212718" xlink:href="#me25c1aecb1" y="161.47573"/>
     <use style="stroke:#000000;" x="98.729279" xlink:href="#me25c1aecb1" y="278.091921"/>
     <use style="stroke:#000000;" x="88.685279" xlink:href="#me25c1aecb1" y="333.366613"/>
     <use style="stroke:#000000;" x="97.92576" xlink:href="#me25c1aecb1" y="276.641849"/>
     <use style="stroke:#000000;" x="85.471199" xlink:href="#me25c1aecb1" y="278.792137"/>
     <use style="stroke:#000000;" x="116.071923" xlink:href="#me25c1aecb1" y="254.840899"/>
     <use style="stroke:#000000;" x="91.09584" xlink:href="#me25c1aecb1" y="315.85231"/>
     <use style="stroke:#000000;" x="111.116878" xlink:href="#me25c1aecb1" y="273.059317"/>
     <use style="stroke:#000000;" x="138.101763" xlink:href="#me25c1aecb1" y="222.515038"/>
     <use style="stroke:#000000;" x="101.407679" xlink:href="#me25c1aecb1" y="302.507196"/>
    </g>
   </g>
   <g id="PathCollection_2">
    <defs>
     <path d="M 0 5.477226 
L 0 -5.477226 
" id="m983b15f93a" style="stroke:#0000ff;stroke-width:1.5;"/>
    </defs>
    <g clip-path="url(#p8cc27e2cc1)">
     <use style="fill:#0000ff;stroke:#0000ff;stroke-width:1.5;" x="83.395439" xlink:href="#m983b15f93a" y="384.48"/>
     <use style="fill:#0000ff;stroke:#0000ff;stroke-width:1.5;" x="81.855359" xlink:href="#m983b15f93a" y="384.48"/>
     <use style="fill:#0000ff;stroke:#0000ff;stroke-width:1.5;" x="117.87984" xlink:href="#m983b15f93a" y="384.48"/>
     <use style="fill:#0000ff;stroke:#0000ff;stroke-width:1.5;" x="145.534321" xlink:href="#m983b15f93a" y="384.48"/>
     <use style="fill:#0000ff;stroke:#0000ff;stroke-width:1.5;" x="81.721439" xlink:href="#m983b15f93a" y="384.48"/>
     <use style="fill:#0000ff;stroke:#0000ff;stroke-width:1.5;" x="81.386641" xlink:href="#m983b15f93a" y="384.48"/>
     <use style="fill:#0000ff;stroke:#0000ff;stroke-width:1.5;" x="84.065038" xlink:href="#m983b15f93a" y="384.48"/>
     <use style="fill:#0000ff;stroke:#0000ff;stroke-width:1.5;" x="113.125679" xlink:href="#m983b15f93a" y="384.48"/>
     <use style="fill:#0000ff;stroke:#0000ff;stroke-width:1.5;" x="183.634564" xlink:href="#m983b15f93a" y="384.48"/>
     <use style="fill:#0000ff;stroke:#0000ff;stroke-width:1.5;" x="80.850962" xlink:href="#m983b15f93a" y="384.48"/>
    </g>
   </g>
   <g id="PathCollection_3">
    <defs>
     <path d="M 5.477226 0 
L -5.477226 -0 
" id="mda837a4736" style="stroke:#008000;stroke-width:1.5;"/>
    </defs>
    <g clip-path="url(#p8cc27e2cc1)">
     <use style="fill:#008000;stroke:#008000;stroke-width:1.5;" x="54" xlink:href="#mda837a4736" y="335.605285"/>
     <use style="fill:#008000;stroke:#008000;stroke-width:1.5;" x="54" xlink:href="#mda837a4736" y="337.813013"/>
     <use style="fill:#008000;stroke:#008000;stroke-width:1.5;" x="54" xlink:href="#mda837a4736" y="343.744127"/>
     <use style="fill:#008000;stroke:#008000;stroke-width:1.5;" x="54" xlink:href="#mda837a4736" y="328.746012"/>
     <use style="fill:#008000;stroke:#008000;stroke-width:1.5;" x="54" xlink:href="#mda837a4736" y="342.220429"/>
     <use style="fill:#008000;stroke:#008000;stroke-width:1.5;" x="54" xlink:href="#mda837a4736" y="335.645484"/>
     <use style="fill:#008000;stroke:#008000;stroke-width:1.5;" x="54" xlink:href="#mda837a4736" y="343.337499"/>
     <use style="fill:#008000;stroke:#008000;stroke-width:1.5;" x="54" xlink:href="#mda837a4736" y="340.347902"/>
     <use style="fill:#008000;stroke:#008000;stroke-width:1.5;" x="54" xlink:href="#mda837a4736" y="341.821071"/>
     <use style="fill:#008000;stroke:#008000;stroke-width:1.5;" x="54" xlink:href="#mda837a4736" y="324.065877"/>
     <use style="fill:#008000;stroke:#008000;stroke-width:1.5;" x="54" xlink:href="#mda837a4736" y="329.356477"/>
     <use style="fill:#008000;stroke:#008000;stroke-width:1.5;" x="54" xlink:href="#mda837a4736" y="336.633501"/>
     <use style="fill:#008000;stroke:#008000;stroke-width:1.5;" x="54" xlink:href="#mda837a4736" y="339.963435"/>
     <use style="fill:#008000;stroke:#008000;stroke-width:1.5;" x="54" xlink:href="#mda837a4736" y="342.413464"/>
     <use style="fill:#008000;stroke:#008000;stroke-width:1.5;" x="54" xlink:href="#mda837a4736" y="325.909765"/>
     <use style="fill:#008000;stroke:#008000;stroke-width:1.5;" x="54" xlink:href="#mda837a4736" y="338.033669"/>
     <use style="fill:#008000;stroke:#008000;stroke-width:1.5;" x="54" xlink:href="#mda837a4736" y="339.195715"/>
     <use style="fill:#008000;stroke:#008000;stroke-width:1.5;" x="54" xlink:href="#mda837a4736" y="336.877019"/>
     <use style="fill:#008000;stroke:#008000;stroke-width:1.5;" x="54" xlink:href="#mda837a4736" y="342.681495"/>
     <use style="fill:#008000;stroke:#008000;stroke-width:1.5;" x="54" xlink:href="#mda837a4736" y="335.547184"/>
     <use style="fill:#008000;stroke:#008000;stroke-width:1.5;" x="54" xlink:href="#mda837a4736" y="344.069701"/>
     <use style="fill:#008000;stroke:#008000;stroke-width:1.5;" x="54" xlink:href="#mda837a4736" y="309.382933"/>
     <use style="fill:#008000;stroke:#008000;stroke-width:1.5;" x="54" xlink:href="#mda837a4736" y="314.871967"/>
     <use style="fill:#008000;stroke:#008000;stroke-width:1.5;" x="54" xlink:href="#mda837a4736" y="326.843373"/>
     <use style="fill:#008000;stroke:#008000;stroke-width:1.5;" x="54" xlink:href="#mda837a4736" y="335.288346"/>
     <use style="fill:#008000;stroke:#008000;stroke-width:1.5;" x="54" xlink:href="#mda837a4736" y="337.133395"/>
     <use style="fill:#008000;stroke:#008000;stroke-width:1.5;" x="54" xlink:href="#mda837a4736" y="343.960428"/>
     <use style="fill:#008000;stroke:#008000;stroke-width:1.5;" x="54" xlink:href="#mda837a4736" y="335.378624"/>
     <use style="fill:#008000;stroke:#008000;stroke-width:1.5;" x="54" xlink:href="#mda837a4736" y="326.305693"/>
     <use style="fill:#008000;stroke:#008000;stroke-width:1.5;" x="54" xlink:href="#mda837a4736" y="329.277817"/>
     <use style="fill:#008000;stroke:#008000;stroke-width:1.5;" x="54" xlink:href="#mda837a4736" y="338.945839"/>
     <use style="fill:#008000;stroke:#008000;stroke-width:1.5;" x="54" xlink:href="#mda837a4736" y="321.624041"/>
     <use style="fill:#008000;stroke:#008000;stroke-width:1.5;" x="54" xlink:href="#mda837a4736" y="343.607119"/>
     <use style="fill:#008000;stroke:#008000;stroke-width:1.5;" x="54" xlink:href="#mda837a4736" y="338.078227"/>
     <use style="fill:#008000;stroke:#008000;stroke-width:1.5;" x="54" xlink:href="#mda837a4736" y="344.106112"/>
     <use style="fill:#008000;stroke:#008000;stroke-width:1.5;" x="54" xlink:href="#mda837a4736" y="336.719962"/>
     <use style="fill:#008000;stroke:#008000;stroke-width:1.5;" x="54" xlink:href="#mda837a4736" y="342.554543"/>
     <use style="fill:#008000;stroke:#008000;stroke-width:1.5;" x="54" xlink:href="#mda837a4736" y="342.363595"/>
     <use style="fill:#008000;stroke:#008000;stroke-width:1.5;" x="54" xlink:href="#mda837a4736" y="340.786308"/>
     <use style="fill:#008000;stroke:#008000;stroke-width:1.5;" x="54" xlink:href="#mda837a4736" y="338.848488"/>
     <use style="fill:#008000;stroke:#008000;stroke-width:1.5;" x="54" xlink:href="#mda837a4736" y="332.974916"/>
     <use style="fill:#008000;stroke:#008000;stroke-width:1.5;" x="54" xlink:href="#mda837a4736" y="343.92775"/>
     <use style="fill:#008000;stroke:#008000;stroke-width:1.5;" x="54" xlink:href="#mda837a4736" y="329.82115"/>
     <use style="fill:#008000;stroke:#008000;stroke-width:1.5;" x="54" xlink:href="#mda837a4736" y="342.636477"/>
     <use style="fill:#008000;stroke:#008000;stroke-width:1.5;" x="54" xlink:href="#mda837a4736" y="328.841188"/>
     <use style="fill:#008000;stroke:#008000;stroke-width:1.5;" x="54" xlink:href="#mda837a4736" y="308.152213"/>
     <use style="fill:#008000;stroke:#008000;stroke-width:1.5;" x="54" xlink:href="#mda837a4736" y="219.461596"/>
     <use style="fill:#008000;stroke:#008000;stroke-width:1.5;" x="54" xlink:href="#mda837a4736" y="317.979827"/>
     <use style="fill:#008000;stroke:#008000;stroke-width:1.5;" x="54" xlink:href="#mda837a4736" y="279.068654"/>
     <use style="fill:#008000;stroke:#008000;stroke-width:1.5;" x="54" xlink:href="#mda837a4736" y="223.730728"/>
     <use style="fill:#008000;stroke:#008000;stroke-width:1.5;" x="54" xlink:href="#mda837a4736" y="292.477068"/>
     <use style="fill:#008000;stroke:#008000;stroke-width:1.5;" x="54" xlink:href="#mda837a4736" y="109.562019"/>
     <use style="fill:#008000;stroke:#008000;stroke-width:1.5;" x="54" xlink:href="#mda837a4736" y="214.661255"/>
     <use style="fill:#008000;stroke:#008000;stroke-width:1.5;" x="54" xlink:href="#mda837a4736" y="308.317693"/>
     <use style="fill:#008000;stroke:#008000;stroke-width:1.5;" x="54" xlink:href="#mda837a4736" y="199.21128"/>
     <use style="fill:#008000;stroke:#008000;stroke-width:1.5;" x="54" xlink:href="#mda837a4736" y="329.148844"/>
     <use style="fill:#008000;stroke:#008000;stroke-width:1.5;" x="54" xlink:href="#mda837a4736" y="284.902739"/>
     <use style="fill:#008000;stroke:#008000;stroke-width:1.5;" x="54" xlink:href="#mda837a4736" y="225.45443"/>
     <use style="fill:#008000;stroke:#008000;stroke-width:1.5;" x="54" xlink:href="#mda837a4736" y="310.921138"/>
     <use style="fill:#008000;stroke:#008000;stroke-width:1.5;" x="54" xlink:href="#mda837a4736" y="307.409685"/>
     <use style="fill:#008000;stroke:#008000;stroke-width:1.5;" x="54" xlink:href="#mda837a4736" y="320.703845"/>
    </g>
   </g>
   <g id="matplotlib.axis_1">
    <g id="xtick_1">
     <g id="line2d_1">
      <defs>
       <path d="M 0 0 
L 0 3.5 
" id="md706f0b1fb" style="stroke:#000000;stroke-width:0.8;"/>
      </defs>
      <g>
       <use style="stroke:#000000;stroke-width:0.8;" x="54" xlink:href="#md706f0b1fb" y="384.48"/>
      </g>
     </g>
     <g id="text_1">
      <!-- $0$ -->
      <defs>
       <path d="M 42 31.640625 
C 42 37.75 41.90625 48.125 37.703125 56.109375 
C 34 63.109375 28.09375 65.59375 22.90625 65.59375 
C 18.09375 65.59375 12 63.40625 8.203125 56.203125 
C 4.203125 48.71875 3.796875 39.4375 3.796875 31.640625 
C 3.796875 25.953125 3.90625 17.28125 7 9.671875 
C 11.296875 -0.609375 19 -2 22.90625 -2 
C 27.5 -2 34.5 -0.109375 38.59375 9.375 
C 41.59375 16.28125 42 24.359375 42 31.640625 
z
M 22.90625 -0.40625 
C 16.5 -0.40625 12.703125 5.078125 11.296875 12.6875 
C 10.203125 18.5625 10.203125 27.15625 10.203125 32.75 
C 10.203125 40.4375 10.203125 46.828125 11.5 52.921875 
C 13.40625 61.390625 19 64 22.90625 64 
C 27 64 32.296875 61.296875 34.203125 53.125 
C 35.5 47.4375 35.59375 40.734375 35.59375 32.75 
C 35.59375 26.25 35.59375 18.265625 34.40625 12.375 
C 32.296875 1.484375 26.40625 -0.40625 22.90625 -0.40625 
z
" id="CMR17-48"/>
      </defs>
      <g transform="translate(51.509332 398.398498)scale(0.1 -0.1)">
       <use transform="scale(0.996264)" xlink:href="#CMR17-48"/>
      </g>
     </g>
    </g>
    <g id="xtick_2">
     <g id="line2d_2">
      <g>
       <use style="stroke:#000000;stroke-width:0.8;" x="120.96" xlink:href="#md706f0b1fb" y="384.48"/>
      </g>
     </g>
     <g id="text_2">
      <!-- $10$ -->
      <defs>
       <path d="M 26.59375 63.40625 
C 26.59375 65.5 26.5 65.5 25.09375 65.5 
C 21.203125 61.1875 15.296875 59.796875 9.703125 59.796875 
C 9.40625 59.796875 8.90625 59.796875 8.796875 59.5 
C 8.703125 59.296875 8.703125 59.09375 8.703125 57 
C 11.796875 57 17 57.59375 21 59.984375 
L 21 7.203125 
C 21 3.6875 20.796875 2.5 12.203125 2.5 
L 9.203125 2.5 
L 9.203125 0 
C 14 0 19 0 23.796875 0 
C 28.59375 0 33.59375 0 38.40625 0 
L 38.40625 2.5 
L 35.40625 2.5 
C 26.796875 2.5 26.59375 3.59375 26.59375 7.15625 
z
" id="CMR17-49"/>
      </defs>
      <g transform="translate(115.978665 398.398498)scale(0.1 -0.1)">
       <use transform="scale(0.996264)" xlink:href="#CMR17-49"/>
       <use transform="translate(45.690477 0)scale(0.996264)" xlink:href="#CMR17-48"/>
      </g>
     </g>
    </g>
    <g id="xtick_3">
     <g id="line2d_3">
      <g>
       <use style="stroke:#000000;stroke-width:0.8;" x="187.92" xlink:href="#md706f0b1fb" y="384.48"/>
      </g>
     </g>
     <g id="text_3">
      <!-- $20$ -->
      <defs>
       <path d="M 41.703125 15.453125 
L 39.90625 15.453125 
C 38.90625 8.375 38.09375 7.171875 37.703125 6.5625 
C 37.203125 5.765625 30 5.765625 28.59375 5.765625 
L 9.40625 5.765625 
C 13 9.671875 20 16.75 28.5 24.953125 
C 34.59375 30.734375 41.703125 37.53125 41.703125 47.421875 
C 41.703125 59.21875 32.296875 66 21.796875 66 
C 10.796875 66 4.09375 56.3125 4.09375 47.34375 
C 4.09375 43.4375 7 42.9375 8.203125 42.9375 
C 9.203125 42.9375 12.203125 43.546875 12.203125 47.03125 
C 12.203125 50.109375 9.59375 51 8.203125 51 
C 7.59375 51 7 50.90625 6.59375 50.703125 
C 8.5 59.21875 14.296875 63.40625 20.40625 63.40625 
C 29.09375 63.40625 34.796875 56.515625 34.796875 47.421875 
C 34.796875 38.734375 29.703125 31.25 24 24.75 
L 4.09375 2.28125 
L 4.09375 0 
L 39.296875 0 
z
" id="CMR17-50"/>
      </defs>
      <g transform="translate(182.938665 398.398498)scale(0.1 -0.1)">
       <use transform="scale(0.996264)" xlink:href="#CMR17-50"/>
       <use transform="translate(45.690477 0)scale(0.996264)" xlink:href="#CMR17-48"/>
      </g>
     </g>
    </g>
    <g id="xtick_4">
     <g id="line2d_4">
      <g>
       <use style="stroke:#000000;stroke-width:0.8;" x="254.88" xlink:href="#md706f0b1fb" y="384.48"/>
      </g>
     </g>
     <g id="text_4">
      <!-- $30$ -->
      <defs>
       <path d="M 22.09375 33.703125 
C 31 33.703125 34.90625 25.96875 34.90625 17.03125 
C 34.90625 5 28.5 0.390625 22.703125 0.390625 
C 17.40625 0.390625 8.796875 3.03125 6.09375 10.828125 
C 6.59375 10.625 7.09375 10.625 7.59375 10.625 
C 10 10.625 11.796875 12.21875 11.796875 14.8125 
C 11.796875 17.703125 9.59375 19 7.59375 19 
C 5.90625 19 3.296875 18.203125 3.296875 14.46875 
C 3.296875 5.234375 12.296875 -2 22.90625 -2 
C 34 -2 42.5 6.71875 42.5 16.953125 
C 42.5 26.671875 34.5 33.6875 25 34.796875 
C 32.59375 36.375 39.90625 43.0625 39.90625 52.015625 
C 39.90625 59.6875 32 65.296875 23 65.296875 
C 13.90625 65.296875 5.90625 59.828125 5.90625 52.015625 
C 5.90625 48.59375 8.5 48 9.796875 48 
C 11.90625 48 13.703125 49.296875 13.703125 51.890625 
C 13.703125 54.46875 11.90625 55.765625 9.796875 55.765625 
C 9.40625 55.765625 8.90625 55.765625 8.5 55.578125 
C 11.40625 61.859375 19.296875 63 22.796875 63 
C 26.296875 63 32.90625 61.328125 32.90625 51.875 
C 32.90625 49.109375 32.5 44.1875 29.09375 39.84375 
C 26.09375 36 22.703125 36 19.40625 35.6875 
C 18.90625 35.6875 16.59375 35.453125 16.203125 35.453125 
C 15.5 35.359375 15.09375 35.265625 15.09375 34.5 
C 15.09375 33.796875 15.203125 33.703125 17.203125 33.703125 
z
" id="CMR17-51"/>
      </defs>
      <g transform="translate(249.898665 398.398498)scale(0.1 -0.1)">
       <use transform="scale(0.996264)" xlink:href="#CMR17-51"/>
       <use transform="translate(45.690477 0)scale(0.996264)" xlink:href="#CMR17-48"/>
      </g>
     </g>
    </g>
    <g id="xtick_5">
     <g id="line2d_5">
      <g>
       <use style="stroke:#000000;stroke-width:0.8;" x="321.84" xlink:href="#md706f0b1fb" y="384.48"/>
      </g>
     </g>
     <g id="text_5">
      <!-- $40$ -->
      <defs>
       <path d="M 33.59375 64.40625 
C 33.59375 66.5 33.5 66.5 31.703125 66.5 
L 2 19.59375 
L 2 17 
L 27.796875 17 
L 27.796875 7.140625 
C 27.796875 3.5 27.59375 2.5 20.59375 2.5 
L 18.703125 2.5 
L 18.703125 0 
C 21.90625 0 27.296875 0 30.703125 0 
C 34.09375 0 39.5 0 42.703125 0 
L 42.703125 2.5 
L 40.796875 2.5 
C 33.796875 2.5 33.59375 3.5 33.59375 7.140625 
L 33.59375 17 
L 43.796875 17 
L 43.796875 19.59375 
L 33.59375 19.59375 
z
M 28.09375 57.859375 
L 28.09375 19.59375 
L 4 19.59375 
z
" id="CMR17-52"/>
      </defs>
      <g transform="translate(316.858665 398.398498)scale(0.1 -0.1)">
       <use transform="scale(0.996264)" xlink:href="#CMR17-52"/>
       <use transform="translate(45.690477 0)scale(0.996264)" xlink:href="#CMR17-48"/>
      </g>
     </g>
    </g>
    <g id="xtick_6">
     <g id="line2d_6">
      <g>
       <use style="stroke:#000000;stroke-width:0.8;" x="388.8" xlink:href="#md706f0b1fb" y="384.48"/>
      </g>
     </g>
     <g id="text_6">
      <!-- $50$ -->
      <defs>
       <path d="M 11.40625 57.6875 
C 12.40625 57.28125 16.5 56 20.703125 56 
C 30 56 35.09375 61.109375 38 64.0625 
C 38 64.953125 38 65.5 37.40625 65.5 
C 37.296875 65.5 37.09375 65.5 36.296875 65.046875 
C 32.796875 63.40625 28.703125 62.078125 23.703125 62.078125 
C 20.703125 62.078125 16.203125 62.484375 11.296875 64.671875 
C 10.203125 65.171875 10 65.171875 9.90625 65.171875 
C 9.40625 65.171875 9.296875 65.0625 9.296875 63.078125 
L 9.296875 34.421875 
C 9.296875 32.640625 9.296875 32.140625 10.296875 32.140625 
C 10.796875 32.140625 11 32.34375 11.5 33.03125 
C 14.703125 37.515625 19.09375 39.40625 24.09375 39.40625 
C 27.59375 39.40625 35.09375 37.21875 35.09375 20.140625 
C 35.09375 16.953125 35.09375 11.171875 32.09375 6.578125 
C 29.59375 2.484375 25.703125 0.390625 21.40625 0.390625 
C 14.796875 0.390625 8.09375 5 6.296875 12.71875 
C 6.703125 12.609375 7.5 12.421875 7.90625 12.421875 
C 9.203125 12.421875 11.703125 13.125 11.703125 16.21875 
C 11.703125 18.90625 9.796875 20 7.90625 20 
C 5.59375 20 4.09375 18.59375 4.09375 15.796875 
C 4.09375 7.09375 11 -2 21.59375 -2 
C 31.90625 -2 41.703125 6.875 41.703125 19.75 
C 41.703125 31.71875 33.90625 41 24.203125 41 
C 19.09375 41 14.796875 39.109375 11.40625 35.53125 
z
" id="CMR17-53"/>
      </defs>
      <g transform="translate(383.818665 398.398498)scale(0.1 -0.1)">
       <use transform="scale(0.996264)" xlink:href="#CMR17-53"/>
       <use transform="translate(45.690477 0)scale(0.996264)" xlink:href="#CMR17-48"/>
      </g>
     </g>
    </g>
    <g id="text_7">
     <!-- Single Pulse Search Detection SNR -->
     <defs>
      <path d="M 43.796875 67.03125 
C 43.796875 68.8125 43.703125 68.921875 43.09375 68.921875 
C 42.5 68.921875 42.296875 68.515625 41.90625 67.625 
L 38.90625 61.046875 
C 35.09375 66.515625 29.296875 69 23 69 
C 12.796875 69 4.59375 60.953125 4.59375 50.828125 
C 4.59375 47.75 5.296875 43.375 8.703125 39.21875 
C 12.40625 34.65625 15.90625 33.859375 23.90625 31.765625 
C 26.90625 30.96875 31.90625 29.671875 32.90625 29.28125 
C 38.59375 26.90625 41.59375 20.953125 41.59375 15.390625 
C 41.59375 8.234375 36.5 0.59375 27.796875 0.59375 
C 17.09375 0.59375 7.09375 6.546875 6.40625 20.484375 
C 6.296875 22.078125 6.203125 22.171875 5.5 22.171875 
C 4.703125 22.171875 4.59375 22.078125 4.59375 20.078125 
L 4.59375 -0.015625 
C 4.59375 -1.796875 4.703125 -1.90625 5.296875 -1.90625 
C 6 -1.90625 6.203125 -1.40625 7.59375 1.6875 
C 7.703125 1.984375 7.703125 2.1875 9.59375 5.953125 
C 14.59375 -0.609375 23 -2 27.796875 -2 
C 38.703125 -2 46.40625 7.046875 46.40625 17.5625 
C 46.40625 22.71875 44.5 26.6875 43.40625 28.484375 
C 39.203125 34.84375 34.703125 36.03125 29.90625 37.21875 
C 29.203125 37.53125 29 37.53125 23.40625 38.90625 
C 18 40.296875 15.703125 41 13.203125 43.6875 
C 10.40625 46.75 9.40625 49.9375 9.40625 53.109375 
C 9.40625 59.5625 14.59375 66.609375 23.09375 66.609375 
C 33.703125 66.609375 40.296875 59.15625 41.796875 46.765625 
C 42.09375 44.96875 42.203125 44.875 42.90625 44.875 
C 43.796875 44.875 43.796875 45.171875 43.796875 46.859375 
z
" id="CMR17-83"/>
      <path d="M 15.5 61.078125 
C 15.5 63.265625 13.703125 65.15625 11.40625 65.15625 
C 9.203125 65.15625 7.296875 63.375 7.296875 61.078125 
C 7.296875 58.890625 9.09375 57 11.40625 57 
C 13.59375 57 15.5 58.796875 15.5 61.078125 
z
M 3.796875 42.28125 
L 3.796875 39.703125 
C 9.40625 39.703125 10.203125 39.09375 10.203125 34.328125 
L 10.203125 6.671875 
C 10.203125 2.875 9.796875 2.390625 3.40625 2.390625 
L 3.40625 -0.203125 
C 5.796875 0 10.09375 0 12.59375 0 
C 15 0 19.09375 0 21.40625 -0.203125 
L 21.40625 2.390625 
C 15.5 2.390625 15.296875 2.984375 15.296875 6.5625 
L 15.296875 43.375 
z
" id="CMR17-105"/>
      <path d="M 41.5 30.203125 
C 41.5 35.296875 40.5 43.59375 28.703125 43.59375 
C 20.796875 43.59375 16.703125 37.5 15.203125 33.5 
L 15.09375 33.5 
L 15.09375 43.59375 
L 3.296875 42.5 
L 3.296875 39.90625 
C 9.203125 39.90625 10.09375 39.296875 10.09375 34.5 
L 10.09375 6.6875 
C 10.09375 2.875 9.703125 2.390625 3.296875 2.390625 
L 3.296875 -0.203125 
C 5.703125 0 10.09375 0 12.703125 0 
C 15.296875 0 19.796875 0 22.203125 -0.203125 
L 22.203125 2.390625 
C 15.796875 2.390625 15.40625 2.78125 15.40625 6.6875 
L 15.40625 25.90625 
C 15.40625 35.109375 21 42 28 42 
C 35.40625 42 36.203125 35.40625 36.203125 30.59375 
L 36.203125 6.6875 
C 36.203125 2.875 35.796875 2.390625 29.40625 2.390625 
L 29.40625 -0.203125 
C 31.796875 0 36.203125 0 38.796875 0 
C 41.40625 0 45.90625 0 48.296875 -0.203125 
L 48.296875 2.390625 
C 41.90625 2.390625 41.5 2.78125 41.5 6.6875 
z
" id="CMR17-110"/>
      <path d="M 11.09375 18.1875 
C 13 16.6875 16.296875 15 20.296875 15 
C 28.203125 15 35 21.203125 35 29.5 
C 35 32.09375 34.203125 36.09375 31.203125 39.203125 
C 34 42.0625 38.09375 43 40.40625 43 
C 40.796875 43 41.40625 43 41.90625 42.71875 
C 41.5 42.625 40.59375 42.234375 40.59375 40.703125 
C 40.59375 39.484375 41.5 38.609375 42.796875 38.609375 
C 44.296875 38.609375 45.09375 39.578125 45.09375 40.84375 
C 45.09375 42.671875 43.59375 44.59375 40.40625 44.59375 
C 36.40625 44.59375 32.90625 42.78125 30.09375 40.3125 
C 27.09375 43.015625 23.5 44 20.296875 44 
C 12.40625 44 5.59375 37.796875 5.59375 29.5 
C 5.59375 23.78125 8.90625 20.1875 9.90625 19.1875 
C 6.90625 15.6875 6.90625 11.609375 6.90625 11.109375 
C 6.90625 8.515625 7.90625 4.71875 11.296875 2.625 
C 6.09375 1.328125 2 -2.640625 2 -7.59375 
C 2 -14.734375 11.5 -20 22.90625 -20 
C 33.90625 -20 43.796875 -14.9375 43.796875 -7.484375 
C 43.796875 6 29 6 21.296875 6 
C 19 6 14.90625 6 14.40625 6.109375 
C 11.296875 6.609375 9.203125 9.40625 9.203125 12.90625 
C 9.203125 13.796875 9.203125 16 11.09375 18.1875 
z
M 20.296875 16.6875 
C 11.5 16.6875 11.5 27.5 11.5 29.515625 
C 11.5 31.5 11.5 42.3125 20.296875 42.3125 
C 29.09375 42.3125 29.09375 31.5 29.09375 29.515625 
C 29.09375 27.5 29.09375 16.6875 20.296875 16.6875 
z
M 22.90625 -18.296875 
C 12.90625 -18.296875 6 -13.046875 6 -7.59375 
C 6 -4.515625 7.703125 -1.640625 9.90625 -0.0625 
C 12.40625 1.625 13.40625 1.625 20.203125 1.625 
C 28.40625 1.625 39.796875 1.625 39.796875 -7.59375 
C 39.796875 -13.046875 32.90625 -18.296875 22.90625 -18.296875 
z
" id="CMR17-103"/>
      <path d="M 15.296875 68.6875 
L 3.40625 67.59375 
L 3.40625 65 
C 9.296875 65 10.203125 64.40625 10.203125 59.640625 
L 10.203125 6.65625 
C 10.203125 2.875 9.796875 2.390625 3.40625 2.390625 
L 3.40625 -0.203125 
C 5.796875 0 10.203125 0 12.703125 0 
C 15.296875 0 19.703125 0 22.09375 -0.203125 
L 22.09375 2.390625 
C 15.703125 2.390625 15.296875 2.78125 15.296875 6.65625 
z
" id="CMR17-108"/>
      <path d="M 38.09375 23 
C 38.5 23.40625 38.5 23.609375 38.5 24.625 
C 38.5 34.96875 33.09375 44 21.703125 44 
C 11.09375 44 2.703125 33.890625 2.703125 21.609375 
C 2.703125 8.609375 12.203125 -1 22.796875 -1 
C 34 -1 38.40625 9.484375 38.40625 11.5625 
C 38.40625 12.25 37.796875 12.25 37.59375 12.25 
C 36.90625 12.25 36.796875 12.046875 36.40625 10.875 
C 34.203125 4.140625 28.703125 0.796875 23.5 0.796875 
C 19.203125 0.796875 14.90625 3.171875 12.203125 7.5 
C 9.09375 12.546875 9.09375 18.375 9.09375 23 
z
M 9.203125 24.5 
C 9.90625 39.140625 17.59375 42.40625 21.59375 42.40625 
C 28.40625 42.40625 33 35.890625 33.09375 24.5 
z
" id="CMR17-101"/>
      <path d="M 19.796875 31.90625 
L 35.796875 31.90625 
C 48.703125 31.90625 58.09375 40.28125 58.09375 49.75 
C 58.09375 59.234375 48.90625 68 35.796875 68 
L 5.203125 68 
L 5.203125 65.40625 
C 12.09375 65.40625 13.203125 65.40625 13.203125 60.9375 
L 13.203125 6.96875 
C 13.203125 2.5 12.09375 2.5 5.203125 2.5 
L 5.203125 0 
C 8.09375 0 13.40625 0 16.5 0 
C 19.59375 0 24.90625 0 27.796875 0 
L 27.796875 2.5 
C 20.90625 2.5 19.796875 2.5 19.796875 6.96875 
z
M 19.59375 34 
L 19.59375 61.53125 
C 19.59375 64.921875 19.796875 65.40625 23.796875 65.40625 
L 33.90625 65.40625 
C 46.796875 65.40625 50.5 58.03125 50.5 49.75 
C 50.5 40.6875 46.09375 34 33.90625 34 
z
" id="CMR17-80"/>
      <path d="M 29.40625 42.078125 
L 29.40625 39.5 
C 35.296875 39.5 36.203125 38.890625 36.203125 34.15625 
L 36.203125 16.125 
C 36.203125 7.8125 31.703125 0.59375 24.296875 0.59375 
C 16.09375 0.59375 15.40625 5.4375 15.40625 10.59375 
L 15.40625 43.171875 
L 3.296875 42.078125 
L 3.296875 39.5 
C 7.296875 39.5 10 39.5 10.09375 35.53125 
L 10.09375 16.53125 
C 10.09375 9.890625 10.09375 5.640625 12.703125 2.859375 
C 14 1.578125 16.5 -1 23.703125 -1 
C 32.203125 -1 35.5 5.890625 36.296875 7.90625 
L 36.40625 7.90625 
L 36.40625 -0.984375 
L 48.296875 -0.984375 
L 48.296875 2 
C 42.40625 2 41.5 2.59375 41.5 7.390625 
L 41.5 43.171875 
z
" id="CMR17-117"/>
      <path d="M 30.90625 42.140625 
C 30.90625 43.953125 30.796875 44.046875 30.203125 44.046875 
C 29.796875 44.046875 29.703125 43.953125 28.5 42.453125 
C 28.203125 42.046875 27.296875 41.03125 27 40.640625 
C 23.796875 44.046875 19.296875 44.046875 17.59375 44.046875 
C 6.5 44.046875 2.5 38.234375 2.5 32.4375 
C 2.5 23.40625 12.703125 21.328125 15.59375 20.703125 
C 21.90625 19.421875 24.09375 19.015625 26.203125 17.203125 
C 27.5 16.015625 29.703125 13.8125 29.703125 10.21875 
C 29.703125 6 27.296875 0.59375 18.09375 0.59375 
C 9.40625 0.59375 6.296875 7.1875 4.5 15.953125 
C 4.203125 17.34375 4.203125 17.453125 3.40625 17.453125 
C 2.59375 17.453125 2.5 17.34375 2.5 15.359375 
L 2.5 0.984375 
C 2.5 -0.796875 2.59375 -0.90625 3.203125 -0.90625 
C 3.703125 -0.90625 3.796875 -0.796875 4.296875 0 
C 4.90625 0.890625 6.40625 3.296875 7 4.3125 
C 9 1.609375 12.5 -1 18.09375 -1 
C 28 -1 33.296875 4.421875 33.296875 12.25 
C 33.296875 17.375 30.59375 20.078125 29.296875 21.28125 
C 26.296875 24.390625 22.796875 25.09375 18.59375 25.890625 
C 13.09375 27.109375 6.09375 28.515625 6.09375 34.640625 
C 6.09375 37.234375 7.5 42.765625 17.59375 42.765625 
C 28.296875 42.765625 28.90625 32.71875 29.09375 29.5 
C 29.203125 29 29.703125 28.890625 30 28.890625 
C 30.90625 28.890625 30.90625 29.203125 30.90625 30.90625 
z
" id="CMR17-115"/>
      <path d="M 36 25.828125 
C 36 32.375 36 35.84375 31.796875 39.734375 
C 28.09375 43 23.796875 44 20.40625 44 
C 12.5 44 6.796875 37.609375 6.796875 30.796875 
C 6.796875 27 9.796875 27 10.40625 27 
C 11.703125 27 14 27.78125 14 30.53125 
C 14 33 12.09375 34.078125 10.40625 34.078125 
C 10 34.078125 9.5 33.96875 9.203125 33.875 
C 11.296875 40.5 16.703125 42.40625 20.203125 42.40625 
C 25.203125 42.40625 30.703125 37.953125 30.703125 29.453125 
L 30.703125 25 
C 24.796875 25 17.703125 24.203125 12.09375 21.203125 
C 5.796875 17.703125 4 12.703125 4 8.90625 
C 4 1.203125 13 -1 18.296875 -1 
C 23.796875 -1 28.90625 2.171875 31.09375 7.984375 
C 31.296875 3.640625 34.09375 -0.28125 38.5 -0.28125 
C 40.59375 -0.28125 45.90625 1.09375 45.90625 8.859375 
L 45.90625 14.375 
L 44.09375 14.375 
L 44.09375 8.78125 
C 44.09375 2.78125 41.40625 2 40.09375 2 
C 36 2 36 7.15625 36 11.53125 
z
M 30.703125 13.59375 
C 30.703125 4.953125 24.5 0.59375 19 0.59375 
C 14 0.59375 10.09375 4.296875 10.09375 8.90625 
C 10.09375 11.890625 11.40625 17.1875 17.203125 20.390625 
C 22 23.09375 27.5 23.5 30.703125 23.5 
z
" id="CMR17-97"/>
      <path d="M 15 23.390625 
C 15 33 19.09375 42 26.59375 42 
C 27.296875 42 28 41.90625 28.703125 41.59375 
C 28.703125 41.59375 26.5 40.890625 26.5 38.3125 
C 26.5 35.90625 28.40625 34.90625 29.90625 34.90625 
C 31.09375 34.90625 33.296875 35.609375 33.296875 38.40625 
C 33.296875 41.609375 30.09375 43.59375 26.703125 43.59375 
C 19.09375 43.59375 15.796875 36.203125 14.796875 32.703125 
L 14.703125 32.703125 
L 14.703125 43.59375 
L 3.09375 42.5 
L 3.09375 39.90625 
C 9 39.90625 9.90625 39.296875 9.90625 34.5 
L 9.90625 6.6875 
C 9.90625 2.875 9.5 2.390625 3.09375 2.390625 
L 3.09375 -0.203125 
C 5.5 0 10.09375 0 12.703125 0 
C 15.59375 0 20.703125 0 23.40625 -0.203125 
L 23.40625 2.390625 
C 16.203125 2.390625 15 2.390625 15 6.875 
z
" id="CMR17-114"/>
      <path d="M 34.90625 35 
C 33 35 30.203125 35 30.203125 31.515625 
C 30.203125 28.71875 32.5 27.921875 33.796875 27.921875 
C 34.5 27.921875 37.40625 28.234375 37.40625 31.625 
C 37.40625 38.546875 30.59375 43.796875 22.90625 43.796875 
C 12.296875 43.796875 3.296875 34.03125 3.296875 21.296875 
C 3.296875 8.0625 12.703125 -1 22.90625 -1 
C 35.296875 -1 38.40625 10.578125 38.40625 11.6875 
C 38.40625 12.09375 38.296875 12.390625 37.59375 12.390625 
C 36.90625 12.390625 36.796875 12.296875 36.40625 10.984375 
C 33.796875 2.8125 28.09375 0.796875 23.796875 0.796875 
C 17.40625 0.796875 9.703125 6.671875 9.703125 21.390625 
C 9.703125 36.53125 17.09375 42 23 42 
C 26.90625 42 32.703125 40.203125 34.90625 35 
z
" id="CMR17-99"/>
      <path d="M 41.5 30.203125 
C 41.5 35.296875 40.5 43.59375 28.703125 43.59375 
C 20.5 43.59375 16.5 37 15.296875 33.703125 
L 15.203125 33.703125 
L 15.203125 68.6875 
L 3.296875 67.59375 
L 3.296875 65 
C 9.203125 65 10.09375 64.40625 10.09375 59.640625 
L 10.09375 6.65625 
C 10.09375 2.875 9.703125 2.390625 3.296875 2.390625 
L 3.296875 -0.203125 
C 5.703125 0 10.09375 0 12.703125 0 
C 15.296875 0 19.796875 0 22.203125 -0.203125 
L 22.203125 2.390625 
C 15.796875 2.390625 15.40625 2.78125 15.40625 6.6875 
L 15.40625 25.90625 
C 15.40625 35.109375 21 42 28 42 
C 35.40625 42 36.203125 35.40625 36.203125 30.59375 
L 36.203125 6.6875 
C 36.203125 2.875 35.796875 2.390625 29.40625 2.390625 
L 29.40625 -0.203125 
C 31.796875 0 36.203125 0 38.796875 0 
C 41.40625 0 45.90625 0 48.296875 -0.203125 
L 48.296875 2.390625 
C 41.90625 2.390625 41.5 2.78125 41.5 6.6875 
z
" id="CMR17-104"/>
      <path d="M 5.203125 68 
L 5.203125 65.40625 
C 12.09375 65.40625 13.203125 65.40625 13.203125 60.9375 
L 13.203125 7.0625 
C 13.203125 2.59375 12.09375 2.59375 5.203125 2.59375 
L 5.203125 0 
L 37 0 
C 53.09375 0 66 14.734375 66 33.453125 
C 66 52.28125 53.296875 68 37 68 
z
M 23.796875 2.59375 
C 19.796875 2.59375 19.59375 3.078125 19.59375 6.46875 
L 19.59375 61.53125 
C 19.59375 64.921875 19.796875 65.40625 23.796875 65.40625 
L 35 65.40625 
C 43.296875 65.40625 58.59375 60.53125 58.59375 33.453125 
C 58.59375 19.40625 54.5 13.734375 52.59375 11.046875 
C 50.203125 7.96875 44.5 2.59375 35 2.59375 
z
" id="CMR17-68"/>
      <path d="M 15.09375 40 
L 29.09375 40 
L 29.09375 42.578125 
L 15.09375 42.578125 
L 15.09375 61 
L 13.296875 61 
C 13.09375 50.703125 9.59375 41.6875 1.09375 41.6875 
L 1.09375 40 
L 9.796875 40 
L 9.796875 12.046875 
C 9.796875 10.15625 9.796875 -1 21.40625 -1 
C 27.296875 -1 30.703125 4.78125 30.703125 12.140625 
L 30.703125 17.8125 
L 28.90625 17.8125 
L 28.90625 12.234375 
C 28.90625 5.375 26.203125 0.796875 22 0.796875 
C 19.09375 0.796875 15.09375 2.78125 15.09375 11.84375 
z
" id="CMR17-116"/>
      <path d="M 43.09375 21.1875 
C 43.09375 34 33.796875 44 22.90625 44 
C 12 44 2.703125 34 2.703125 21.1875 
C 2.703125 8.609375 12 -1 22.90625 -1 
C 33.796875 -1 43.09375 8.609375 43.09375 21.1875 
z
M 22.90625 0.796875 
C 18.203125 0.796875 14.203125 3.59375 11.90625 7.5 
C 9.40625 11.984375 9.09375 17.59375 9.09375 22 
C 9.09375 26.203125 9.296875 31.40625 11.90625 35.90625 
C 13.90625 39.203125 17.796875 42.40625 22.90625 42.40625 
C 27.40625 42.40625 31.203125 39.90625 33.59375 36.40625 
C 36.703125 31.703125 36.703125 25.109375 36.703125 22 
C 36.703125 18.09375 36.5 12.109375 33.796875 7.296875 
C 31 2.703125 26.703125 0.796875 22.90625 0.796875 
z
" id="CMR17-111"/>
      <path d="M 20.5 66.40625 
C 19.796875 67.5 19.703125 67.5 17.796875 67.5 
L 5.09375 67.5 
L 5.09375 65 
L 7 65 
C 11 65 12.796875 64.515625 13.09375 64.40625 
L 13.09375 9.53125 
C 13.09375 7.046875 13.09375 2.390625 5.09375 2.390625 
L 5.09375 -0.203125 
C 7.40625 0 11.59375 0 14.09375 0 
C 16.59375 0 20.796875 0 23.09375 -0.203125 
L 23.09375 2.390625 
C 15.09375 2.390625 15.09375 7.046875 15.09375 9.53125 
L 15.09375 63.015625 
C 15.796875 62.421875 15.796875 62.21875 16.5 61.234375 
L 53.59375 1.1875 
C 54.296875 0 54.59375 0 55.09375 0 
C 56.09375 0 56.09375 0.296875 56.09375 2.171875 
L 56.09375 57.890625 
C 56.09375 60.359375 56.09375 65 64.09375 65 
L 64.09375 67.59375 
C 61.796875 67.5 57.59375 67.5 55.09375 67.5 
C 52.59375 67.5 48.40625 67.5 46.09375 67.59375 
L 46.09375 65 
C 54.09375 65 54.09375 60.34375 54.09375 57.859375 
L 54.09375 11.921875 
z
" id="CMR17-78"/>
      <path d="M 39.203125 33.53125 
C 48.703125 35.4375 56.703125 41.8125 56.703125 49.78125 
C 56.703125 59.140625 46.09375 67.59375 32.09375 67.59375 
L 5.203125 67.59375 
L 5.203125 65 
C 12.09375 65 13.203125 65 13.203125 60.515625 
L 13.203125 6.484375 
C 13.203125 2 12.09375 2 5.203125 2 
L 5.203125 -0.40625 
C 8.09375 -0.40625 13.296875 -0.40625 16.40625 -0.40625 
C 19.5 -0.40625 24.703125 -0.40625 27.59375 -0.40625 
L 27.59375 2 
C 20.703125 2 19.59375 2 19.59375 6.515625 
L 19.59375 33 
L 31.296875 33 
C 37 33 40.203125 30.6875 41.59375 29.390625 
C 45.59375 25.5 45.59375 22.796875 45.59375 16 
C 45.59375 9.296875 45.59375 5.890625 48.59375 2.5 
C 52.40625 -1.59375 57.5 -2 59.703125 -2 
C 67.09375 -2 68.203125 6.1875 68.203125 7.859375 
C 68.203125 8.4375 68.203125 9.140625 67.296875 9.140625 
C 66.5 9.140625 66.40625 8.546875 66.40625 8.15625 
C 65.90625 1.75 63 -0.40625 59.90625 -0.40625 
C 54.40625 -0.40625 53.796875 5.859375 53.203125 11.9375 
C 52.90625 14.03125 52.703125 15.515625 52.5 17.703125 
C 51.90625 22.6875 51.09375 29.953125 39.203125 33.53125 
z
M 31 34.59375 
L 19.59375 34.59375 
L 19.59375 61.140625 
C 19.59375 64.515625 19.796875 65 23.796875 65 
L 31.09375 65 
C 39.40625 65 49.09375 62.140625 49.09375 49.84375 
C 49.09375 37.0625 38.5 34.59375 31 34.59375 
z
" id="CMR17-82"/>
     </defs>
     <g transform="translate(144.632208 411.254175)scale(0.1 -0.1)">
      <use transform="scale(0.996264)" xlink:href="#CMR17-83"/>
      <use transform="translate(50.89537 0)scale(0.996264)" xlink:href="#CMR17-105"/>
      <use transform="translate(75.766428 0)scale(0.996264)" xlink:href="#CMR17-110"/>
      <use transform="translate(126.661798 0)scale(0.996264)" xlink:href="#CMR17-103"/>
      <use transform="translate(172.352275 0)scale(0.996264)" xlink:href="#CMR17-108"/>
      <use transform="translate(197.223334 0)scale(0.996264)" xlink:href="#CMR17-101"/>
      <use transform="translate(267.78496 0)scale(0.996264)" xlink:href="#CMR17-80"/>
      <use transform="translate(330.371261 0)scale(0.996264)" xlink:href="#CMR17-117"/>
      <use transform="translate(381.266631 0)scale(0.996264)" xlink:href="#CMR17-108"/>
      <use transform="translate(406.137689 0)scale(0.996264)" xlink:href="#CMR17-115"/>
      <use transform="translate(441.939027 0)scale(0.996264)" xlink:href="#CMR17-101"/>
      <use transform="translate(512.500654 0)scale(0.996264)" xlink:href="#CMR17-83"/>
      <use transform="translate(563.396023 0)scale(0.996264)" xlink:href="#CMR17-101"/>
      <use transform="translate(603.881684 0)scale(0.996264)" xlink:href="#CMR17-97"/>
      <use transform="translate(649.572161 0)scale(0.996264)" xlink:href="#CMR17-114"/>
      <use transform="translate(684.852929 0)scale(0.996264)" xlink:href="#CMR17-99"/>
      <use transform="translate(722.736135 0)scale(0.996264)" xlink:href="#CMR17-104"/>
      <use transform="translate(803.707471 0)scale(0.996264)" xlink:href="#CMR17-68"/>
      <use transform="translate(874.101027 0)scale(0.996264)" xlink:href="#CMR17-101"/>
      <use transform="translate(914.586688 0)scale(0.996264)" xlink:href="#CMR17-116"/>
      <use transform="translate(949.867456 0)scale(0.996264)" xlink:href="#CMR17-101"/>
      <use transform="translate(990.353116 0)scale(0.996264)" xlink:href="#CMR17-99"/>
      <use transform="translate(1030.838777 0)scale(0.996264)" xlink:href="#CMR17-116"/>
      <use transform="translate(1066.119544 0)scale(0.996264)" xlink:href="#CMR17-105"/>
      <use transform="translate(1090.990603 0)scale(0.996264)" xlink:href="#CMR17-111"/>
      <use transform="translate(1136.68108 0)scale(0.996264)" xlink:href="#CMR17-110"/>
      <use transform="translate(1217.652416 0)scale(0.996264)" xlink:href="#CMR17-83"/>
      <use transform="translate(1268.547786 0)scale(0.996264)" xlink:href="#CMR17-78"/>
      <use transform="translate(1337.620216 0)scale(0.996264)" xlink:href="#CMR17-82"/>
     </g>
    </g>
   </g>
   <g id="matplotlib.axis_2">
    <g id="ytick_1">
     <g id="line2d_7">
      <defs>
       <path d="M 0 0 
L -3.5 0 
" id="me4bf84d734" style="stroke:#000000;stroke-width:0.8;"/>
      </defs>
      <g>
       <use style="stroke:#000000;stroke-width:0.8;" x="54" xlink:href="#me4bf84d734" y="384.48"/>
      </g>
     </g>
     <g id="text_8">
      <!-- $0$ -->
      <g transform="translate(42.018665 387.939249)scale(0.1 -0.1)">
       <use transform="scale(0.996264)" xlink:href="#CMR17-48"/>
      </g>
     </g>
    </g>
    <g id="ytick_2">
     <g id="line2d_8">
      <g>
       <use style="stroke:#000000;stroke-width:0.8;" x="54" xlink:href="#me4bf84d734" y="317.952"/>
      </g>
     </g>
     <g id="text_9">
      <!-- $10$ -->
      <g transform="translate(37.037329 321.411249)scale(0.1 -0.1)">
       <use transform="scale(0.996264)" xlink:href="#CMR17-49"/>
       <use transform="translate(45.690477 0)scale(0.996264)" xlink:href="#CMR17-48"/>
      </g>
     </g>
    </g>
    <g id="ytick_3">
     <g id="line2d_9">
      <g>
       <use style="stroke:#000000;stroke-width:0.8;" x="54" xlink:href="#me4bf84d734" y="251.424"/>
      </g>
     </g>
     <g id="text_10">
      <!-- $20$ -->
      <g transform="translate(37.037329 254.883249)scale(0.1 -0.1)">
       <use transform="scale(0.996264)" xlink:href="#CMR17-50"/>
       <use transform="translate(45.690477 0)scale(0.996264)" xlink:href="#CMR17-48"/>
      </g>
     </g>
    </g>
    <g id="ytick_4">
     <g id="line2d_10">
      <g>
       <use style="stroke:#000000;stroke-width:0.8;" x="54" xlink:href="#me4bf84d734" y="184.896"/>
      </g>
     </g>
     <g id="text_11">
      <!-- $30$ -->
      <g transform="translate(37.037329 188.355249)scale(0.1 -0.1)">
       <use transform="scale(0.996264)" xlink:href="#CMR17-51"/>
       <use transform="translate(45.690477 0)scale(0.996264)" xlink:href="#CMR17-48"/>
      </g>
     </g>
    </g>
    <g id="ytick_5">
     <g id="line2d_11">
      <g>
       <use style="stroke:#000000;stroke-width:0.8;" x="54" xlink:href="#me4bf84d734" y="118.368"/>
      </g>
     </g>
     <g id="text_12">
      <!-- $40$ -->
      <g transform="translate(37.037329 121.827249)scale(0.1 -0.1)">
       <use transform="scale(0.996264)" xlink:href="#CMR17-52"/>
       <use transform="translate(45.690477 0)scale(0.996264)" xlink:href="#CMR17-48"/>
      </g>
     </g>
    </g>
    <g id="ytick_6">
     <g id="line2d_12">
      <g>
       <use style="stroke:#000000;stroke-width:0.8;" x="54" xlink:href="#me4bf84d734" y="51.84"/>
      </g>
     </g>
     <g id="text_13">
      <!-- $50$ -->
      <g transform="translate(37.037329 55.299249)scale(0.1 -0.1)">
       <use transform="scale(0.996264)" xlink:href="#CMR17-53"/>
       <use transform="translate(45.690477 0)scale(0.996264)" xlink:href="#CMR17-48"/>
      </g>
     </g>
    </g>
    <g id="text_14">
     <!-- L1 Detection SNR -->
     <defs>
      <path d="M 54.203125 25.234375 
L 52.40625 25.234375 
C 51.59375 15.359375 50.296875 2.59375 33.203125 2.59375 
L 23.90625 2.59375 
C 19.90625 2.59375 19.703125 3.078125 19.703125 6.46875 
L 19.703125 60.90625 
C 19.703125 64.515625 19.90625 65.5 27.5 65.5 
L 29.703125 65.5 
L 29.703125 68 
C 25.59375 68 20.796875 68 16.703125 68 
C 13.59375 68 8 68 5.09375 68 
L 5.09375 65.5 
C 12 65.5 13.09375 65.5 13.09375 61.03125 
L 13.09375 7.0625 
C 13.09375 2.59375 12 2.59375 5.09375 2.59375 
L 5.09375 0 
L 51.796875 0 
z
" id="CMR17-76"/>
     </defs>
     <g transform="translate(31.100151 258.218179)rotate(-90)scale(0.1 -0.1)">
      <use transform="scale(0.996264)" xlink:href="#CMR17-76"/>
      <use transform="translate(57.381408 0)scale(0.996264)" xlink:href="#CMR17-49"/>
      <use transform="translate(133.147851 0)scale(0.996264)" xlink:href="#CMR17-68"/>
      <use transform="translate(203.541407 0)scale(0.996264)" xlink:href="#CMR17-101"/>
      <use transform="translate(244.027068 0)scale(0.996264)" xlink:href="#CMR17-116"/>
      <use transform="translate(279.307835 0)scale(0.996264)" xlink:href="#CMR17-101"/>
      <use transform="translate(319.793496 0)scale(0.996264)" xlink:href="#CMR17-99"/>
      <use transform="translate(360.279156 0)scale(0.996264)" xlink:href="#CMR17-116"/>
      <use transform="translate(395.559924 0)scale(0.996264)" xlink:href="#CMR17-105"/>
      <use transform="translate(420.430983 0)scale(0.996264)" xlink:href="#CMR17-111"/>
      <use transform="translate(466.12146 0)scale(0.996264)" xlink:href="#CMR17-110"/>
      <use transform="translate(547.092796 0)scale(0.996264)" xlink:href="#CMR17-83"/>
      <use transform="translate(597.988166 0)scale(0.996264)" xlink:href="#CMR17-78"/>
      <use transform="translate(667.060596 0)scale(0.996264)" xlink:href="#CMR17-82"/>
     </g>
    </g>
   </g>
   <g id="line2d_13">
    <path clip-path="url(#p8cc27e2cc1)" d="M 80.784 384.48 
L 80.784 51.84 
" style="fill:none;stroke:#000000;stroke-dasharray:1.85,0.8;stroke-dashoffset:0;stroke-width:0.5;"/>
   </g>
   <g id="line2d_14">
    <path clip-path="url(#p8cc27e2cc1)" d="M 54 331.2576 
L 388.8 331.2576 
" style="fill:none;stroke:#000000;stroke-dasharray:1.85,0.8;stroke-dashoffset:0;stroke-width:0.5;"/>
   </g>
   <g id="line2d_15">
    <path clip-path="url(#p8cc27e2cc1)" d="M 54 384.48 
L 57.438191 377.489111 
L 60.876382 370.498223 
L 64.314573 363.507334 
L 67.752764 356.516446 
L 71.190955 349.525557 
L 74.629146 342.534668 
L 78.067337 335.54378 
L 81.505528 328.552891 
L 84.943719 321.562003 
L 88.38191 314.571114 
L 91.820101 307.580226 
L 95.258292 300.589337 
L 98.696483 293.598448 
L 102.134674 286.60756 
L 105.572865 279.616671 
L 109.011056 272.625783 
L 112.449247 265.634894 
L 115.887438 258.644005 
L 119.325629 251.653117 
L 122.76382 244.662228 
L 126.202011 237.67134 
L 129.640202 230.680451 
L 133.078393 223.689563 
L 136.516584 216.698674 
L 139.954775 209.707785 
L 143.392966 202.716897 
L 146.831157 195.726008 
L 150.269348 188.73512 
L 153.707539 181.744231 
L 157.14573 174.753342 
L 160.583921 167.762454 
L 164.022112 160.771565 
L 167.460303 153.780677 
L 170.898494 146.789788 
L 174.336685 139.7989 
L 177.774876 132.808011 
L 181.213067 125.817122 
L 184.651258 118.826234 
L 188.089449 111.835345 
L 191.52764 104.844457 
L 194.965831 97.853568 
L 198.404022 90.862679 
L 201.842213 83.871791 
L 205.280404 76.880902 
L 208.718595 69.890014 
L 212.156786 62.899125 
L 215.594977 55.908236 
L 219.033168 48.917348 
L 222.471359 41.926459 
" style="fill:none;stroke:#ff0000;stroke-dasharray:5.55,2.4;stroke-dashoffset:0;stroke-width:1.5;"/>
   </g>
   <g id="patch_3">
    <path d="M 54 384.48 
L 54 51.84 
" style="fill:none;stroke:#000000;stroke-linecap:square;stroke-linejoin:miter;stroke-width:0.8;"/>
   </g>
   <g id="patch_4">
    <path d="M 388.8 384.48 
L 388.8 51.84 
" style="fill:none;stroke:#000000;stroke-linecap:square;stroke-linejoin:miter;stroke-width:0.8;"/>
   </g>
   <g id="patch_5">
    <path d="M 54 384.48 
L 388.8 384.48 
" style="fill:none;stroke:#000000;stroke-linecap:square;stroke-linejoin:miter;stroke-width:0.8;"/>
   </g>
   <g id="patch_6">
    <path d="M 54 51.84 
L 388.8 51.84 
" style="fill:none;stroke:#000000;stroke-linecap:square;stroke-linejoin:miter;stroke-width:0.8;"/>
   </g>
   <g id="legend_1">
    <g id="patch_7">
     <path d="M 277.847364 74.80264 
L 381.8 74.80264 
Q 383.8 74.80264 383.8 72.80264 
L 383.8 58.84 
Q 383.8 56.84 381.8 56.84 
L 277.847364 56.84 
Q 275.847364 56.84 275.847364 58.84 
L 275.847364 72.80264 
Q 275.847364 74.80264 277.847364 74.80264 
z
" style="fill:#ffffff;opacity:0.8;stroke:#cccccc;stroke-linejoin:miter;"/>
    </g>
    <g id="line2d_16">
     <path d="M 279.847364 64.81198 
L 299.847364 64.81198 
" style="fill:none;stroke:#ff0000;stroke-dasharray:5.55,2.4;stroke-dashoffset:0;stroke-width:1.5;"/>
    </g>
    <g id="line2d_17"/>
    <g id="text_15">
     <!-- y=(2.05$\pm$0.02)$\cdot$x -->
     <defs>
      <path d="M 39 34.328125 
C 41.5 40.40625 46 40.40625 47.40625 40.40625 
L 47.40625 43 
C 45.5 43 43 43 41.09375 43 
C 39 43 35.703125 43 33.703125 43.09375 
L 33.703125 40.5 
C 37.5 40.203125 37.59375 37.40625 37.59375 36.609375 
C 37.59375 35.625 37.40625 35.125 36.90625 33.921875 
L 26 7.015625 
L 14.09375 36.03125 
C 13.59375 37.21875 13.59375 37.90625 13.59375 38.015625 
C 13.59375 40.203125 15.90625 40.40625 18.296875 40.40625 
L 18.296875 43.09375 
C 15.90625 43 11.59375 43 9.09375 43 
C 6.40625 43 3.203125 43 1 43.09375 
L 1 40.40625 
C 6.40625 40.40625 7 39.90625 8.296875 36.71875 
L 23.203125 0.234375 
C 18.703125 -11.53125 16.09375 -18.40625 9.796875 -18.40625 
C 8.703125 -18.40625 6.203125 -18.109375 4.40625 -16.3125 
C 6.703125 -16.109375 7.703125 -14.71875 7.703125 -13.015625 
C 7.703125 -11.328125 6.5 -9.828125 4.5 -9.828125 
C 2.296875 -9.828125 1.203125 -11.328125 1.203125 -13.125 
C 1.203125 -17.109375 5.296875 -20 9.796875 -20 
C 15.59375 -20 19.203125 -14.40625 21.203125 -9.4375 
z
" id="CMR17-121"/>
      <path d="M 64.296875 31.515625 
C 65.796875 31.515625 67.296875 31.515625 67.296875 33.203125 
C 67.296875 35 65.59375 35 63.90625 35 
L 8 35 
C 6.296875 35 4.59375 35 4.59375 33.203125 
C 4.59375 31.515625 6.09375 31.515625 7.59375 31.515625 
z
M 63.90625 14 
C 65.59375 14 67.296875 14 67.296875 15.796875 
C 67.296875 17.484375 65.796875 17.484375 64.296875 17.484375 
L 7.59375 17.484375 
C 6.09375 17.484375 4.59375 17.484375 4.59375 15.796875 
C 4.59375 14 6.296875 14 8 14 
z
" id="CMR17-61"/>
      <path d="M 30.59375 -24.390625 
C 30.59375 -24.296875 30.59375 -24.09375 30.296875 -23.796875 
C 25.703125 -19.125 13.40625 -6.359375 13.40625 24.6875 
C 13.40625 55.765625 25.5 68.421875 30.40625 73.390625 
C 30.40625 73.5 30.59375 73.703125 30.59375 74 
C 30.59375 74.296875 30.296875 74.5 29.90625 74.5 
C 28.796875 74.5 20.296875 67.125 15.40625 56.15625 
C 10.40625 45.109375 9 34.359375 9 24.8125 
C 9 17.625 9.703125 5.484375 15.703125 -7.359375 
C 20.5 -17.734375 28.703125 -25 29.90625 -25 
C 30.40625 -25 30.59375 -24.796875 30.59375 -24.390625 
z
" id="CMR17-40"/>
      <path d="M 16.59375 4.078125 
C 16.59375 6.5625 14.59375 8.15625 12.5 8.15625 
C 10.5 8.15625 8.40625 6.5625 8.40625 4.078125 
C 8.40625 1.59375 10.40625 0 12.5 0 
C 14.5 0 16.59375 1.59375 16.59375 4.078125 
z
" id="CMR17-46"/>
      <path d="M 40.90625 31 
L 68.703125 31 
C 70.40625 31 72.203125 31 72.203125 33 
C 72.203125 35 70.40625 35 68.703125 35 
L 40.90625 35 
L 40.90625 62.78125 
C 40.90625 64.390625 40.90625 66.5 38.90625 66.5 
C 36.90625 66.5 36.90625 64.6875 36.90625 63.09375 
L 36.90625 35 
L 9 35 
C 7.296875 35 5.5 35 5.5 33 
C 5.5 31 7.296875 31 9 31 
L 36.90625 31 
L 36.90625 4 
L 9 4 
C 7.296875 4 5.5 4 5.5 2 
C 5.5 0 7.296875 0 9 0 
L 68.703125 0 
C 70.40625 0 72.203125 0 72.203125 2 
C 72.203125 4 70.40625 4 68.703125 4 
L 40.90625 4 
z
" id="CMSY10-6"/>
      <path d="M 26.296875 24.6875 
C 26.296875 31.875 25.59375 44.015625 19.59375 56.859375 
C 14.796875 67.234375 6.59375 74.5 5.40625 74.5 
C 5.09375 74.5 4.703125 74.390625 4.703125 73.890625 
C 4.703125 73.703125 4.796875 73.59375 4.90625 73.390625 
C 9.703125 68.40625 21.90625 55.75 21.90625 24.75 
C 21.90625 -6.359375 9.796875 -19.015625 4.90625 -24.015625 
C 4.796875 -24.203125 4.703125 -24.3125 4.703125 -24.5 
C 4.703125 -25 5.09375 -25 5.40625 -25 
C 6.5 -25 15 -17.625 19.90625 -6.65625 
C 24.90625 4.390625 26.296875 15.140625 26.296875 24.6875 
z
" id="CMR17-41"/>
      <path d="M 19.203125 25.296875 
C 19.203125 28.203125 16.796875 30.59375 13.90625 30.59375 
C 11 30.59375 8.59375 28.203125 8.59375 25.296875 
C 8.59375 22.390625 11 20 13.90625 20 
C 16.796875 20 19.203125 22.390625 19.203125 25.296875 
z
" id="CMSY10-1"/>
      <path d="M 26 23.078125 
C 29 26.96875 32.40625 31.34375 35.203125 34.625 
C 38.5 38.40625 42.296875 40 46.703125 40 
L 46.703125 42.59375 
C 45 42.59375 41.5 42.59375 39.703125 42.59375 
C 37 42.59375 33.90625 42.59375 31.59375 42.6875 
L 31.59375 40.09375 
C 33 39.890625 33.796875 38.890625 33.796875 37.5 
C 33.796875 35.703125 32.796875 34.609375 32.296875 33.921875 
L 24.90625 24.578125 
L 16.09375 36.03125 
C 15.203125 37.125 15.203125 37.3125 15.203125 37.8125 
C 15.203125 39.015625 16.203125 40 17.90625 40 
L 17.90625 42.6875 
C 15.5 42.59375 11.203125 42.59375 8.703125 42.59375 
C 6 42.59375 2.796875 42.59375 0.59375 42.6875 
L 0.59375 40 
C 6 40 7.203125 39.59375 9.59375 36.609375 
L 21.09375 21.796875 
C 21.296875 21.59375 21.796875 21 21.796875 20.703125 
C 21.796875 20.296875 13.09375 9.671875 12 8.28125 
C 7.5 2.890625 2.796875 2.5 0.09375 2.5 
L 0.09375 0 
C 1.796875 0 5.296875 0 7.09375 0 
C 9.09375 0 13.5 0 15.296875 -0.09375 
L 15.296875 2.5 
C 14.703125 2.59375 13.09375 2.796875 13.09375 5.078125 
C 13.09375 6.875 13.90625 7.96875 14.796875 9.15625 
L 23.09375 19.3125 
L 31.796875 8 
C 32.59375 6.90625 33.796875 5.40625 33.796875 4.703125 
C 33.796875 3.296875 32.59375 2.5 31 2.5 
L 31 -0.09375 
C 33.40625 0 37.703125 0 40.203125 0 
C 42.90625 0 46.09375 0 48.296875 -0.09375 
L 48.296875 2.5 
C 43.296875 2.5 41.796875 2.6875 39.40625 5.78125 
z
" id="CMR17-120"/>
     </defs>
     <g transform="translate(307.847364 68.31198)scale(0.1 -0.1)">
      <use transform="scale(0.996264)" xlink:href="#CMR17-121"/>
      <use transform="translate(48.292916 0)scale(0.996264)" xlink:href="#CMR17-61"/>
      <use transform="translate(120.007704 0)scale(0.996264)" xlink:href="#CMR17-40"/>
      <use transform="translate(155.288472 0)scale(0.996264)" xlink:href="#CMR17-50"/>
      <use transform="translate(200.978949 0)scale(0.996264)" xlink:href="#CMR17-46"/>
      <use transform="translate(225.850008 0)scale(0.996264)" xlink:href="#CMR17-48"/>
      <use transform="translate(271.540485 0)scale(0.996264)" xlink:href="#CMR17-53"/>
      <use transform="translate(317.230962 0)scale(0.996264)" xlink:href="#CMSY10-6"/>
      <use transform="translate(394.71843 0)scale(0.996264)" xlink:href="#CMR17-48"/>
      <use transform="translate(440.408907 0)scale(0.996264)" xlink:href="#CMR17-46"/>
      <use transform="translate(465.279965 0)scale(0.996264)" xlink:href="#CMR17-48"/>
      <use transform="translate(510.970442 0)scale(0.996264)" xlink:href="#CMR17-50"/>
      <use transform="translate(556.660919 0)scale(0.996264)" xlink:href="#CMR17-41"/>
      <use transform="translate(591.941687 0)scale(0.996264)" xlink:href="#CMSY10-1"/>
      <use transform="translate(619.615772 0)scale(0.996264)" xlink:href="#CMR17-120"/>
     </g>
    </g>
   </g>
  </g>
 </g>
 <defs>
  <clipPath id="p8cc27e2cc1">
   <rect height="332.64" width="334.8" x="54" y="51.84"/>
  </clipPath>
 </defs>
</svg>
